<svg width="141" height="58" viewBox="0 0 141 58" fill="none" xmlns="http://www.w3.org/2000/svg">
<path d="M16.3763 0.452637C8.28108 0.452637 1.64624 6.876 1.38412 14.9669L0.501677 42.2061C0.227276 50.6762 7.01919 57.6917 15.4938 57.6917H125.722C133.971 57.6917 140.671 51.0322 140.722 42.7841L140.89 15.545C140.941 7.22478 134.211 0.452637 125.89 0.452637H16.3763Z" fill="#FFE660"/>
<mask id="mask0" mask-type="alpha" maskUnits="userSpaceOnUse" x="0" y="0" width="141" height="58">
<path d="M16.3763 0.452637C8.28108 0.452637 1.64624 6.876 1.38412 14.967L0.501677 42.2061C0.227276 50.6762 7.01919 57.6917 15.4938 57.6917H125.722C133.971 57.6917 140.671 51.0322 140.722 42.7841L140.89 15.545C140.941 7.22478 134.211 0.452637 125.89 0.452637H16.3763Z" fill="white"/>
</mask>
<g mask="url(#mask0)">
<path d="M52.2152 -3.45592C48.6305 -5.33699 41.5322 -4.02377 32.5883 -12.3377C26.9628 -17.5639 24.576 -25.8246 22.6151 -35.1235C20.4234 -45.5315 23.9194 -53.7655 27.3798 -60.4557C32.3842 -70.1539 42.1267 -74.6525 52.3128 -76.5069C69.5263 -79.6391 79.3398 -73.2239 83.5722 -67.6162C88.0708 -61.6625 88.1152 -54.1471 94.0867 -55.5756C100.236 -57.0397 98.8869 -64.3953 98.3102 -67.5097C97.6447 -71.1033 97.3519 -73.0376 98.3723 -73.2683C99.3927 -73.499 101.141 -71.68 103.279 -65.6997C105.391 -59.7991 106.225 -55.6377 109.144 -56.1169C112.001 -56.5871 113.137 -58.8764 112.329 -66.4716C111.469 -74.5815 106.89 -82.922 109.881 -83.8714C112.871 -84.8209 116.979 -80.4731 122.178 -71.7687C127.378 -63.0555 132.019 -45.5137 127.937 -32.0623C125.382 -23.6241 120.12 -16.0821 113.74 -12.462C107.476 -8.90391 99.8097 -5.07079 95.0006 -3.60675C84.495 -0.403618 87.2811 2.43571 89.2687 7.60864C91.2473 12.7727 94.0245 24.6891 84.5482 30.0661C75.0719 35.4431 58.5505 37.9541 57.681 21.2907C56.8114 4.62734 60.7244 1.02492 52.2152 -3.45592Z" fill="#45BDD1"/>
<path d="M84.0869 14.636C85.1516 19.2854 81.8775 23.997 76.7844 25.1593C71.6913 26.3217 66.6959 23.5001 65.6311 18.8507C64.5664 14.2012 67.8405 9.48968 72.9336 8.32733C78.0355 7.16497 83.031 9.98658 84.0869 14.636Z" fill="#AAD9D7"/>
<path d="M86.6778 12.9857C86.6778 12.9857 93.1905 7.91923 96.8639 6.68589C100.537 5.45255 102.685 4.82257 102.685 4.82257C102.685 4.82257 104.725 4.27243 104.007 2.20504C102.924 -0.873877 102.392 -1.94749 100.2 -0.802879C97.9996 0.332858 95.0272 1.47745 92.1701 3.91751C89.313 6.36644 84.8499 10.8828 84.8499 10.8828L86.6778 12.9857Z" fill="#45BDD1"/>
<path d="M60.2719 14.8756C60.2719 14.8756 52.2951 12.7638 48.4354 13.0744C44.5756 13.376 42.3574 13.6334 42.3574 13.6334C42.3574 13.6334 40.2545 13.9262 40.1125 11.7434C39.8996 8.48705 39.9706 7.29809 42.4373 7.48442C44.9039 7.67075 48.0893 7.55539 51.674 8.69113C55.2586 9.82687 61.1414 12.2226 61.1414 12.2226L60.2719 14.8756Z" fill="#45BDD1"/>
<path d="M70.4403 28.8682C70.4403 28.8682 70.2007 37.0756 66.5096 40.3054C62.8095 43.5263 56.6517 43.5884 55.3474 43.6239C54.0431 43.6594 53.5551 42.985 53.3953 41.6008C53.2356 40.2167 52.8097 37.9186 54.5843 37.7589C56.3589 37.5903 60.2453 38.6461 62.5789 37.5282C66.4386 35.6826 67.2194 28.1583 67.2194 28.1583L70.4403 28.8682Z" fill="#45BDD1"/>
<path d="M84.424 24.2987C84.424 24.2987 92.7291 23.6332 96.2783 26.9162C99.8275 30.1992 100.378 36.2417 100.52 37.5194C100.662 38.7971 100.014 39.3561 98.6385 39.6578C97.2543 39.9683 94.974 40.6338 94.6634 38.9124C94.3528 37.1911 95.107 33.2515 93.7938 31.0865C91.6288 27.5018 83.9626 27.5462 83.9626 27.5462L84.424 24.2987Z" fill="#45BDD1"/>
</g>
</svg>
