<svg width="18" height="65" viewBox="0 0 18 65" fill="none" xmlns="http://www.w3.org/2000/svg">
<path d="M10.7 53.7316C11.0394 52.3665 11.4009 51.0015 11.7699 49.6365C12.279 47.7329 12.8102 45.7554 13.2603 43.8001C15.0975 35.7797 16.1896 29.2129 16.6839 23.1183C17.193 16.8244 17.466 9.60829 14.19 3.58008C13.0021 1.38867 11.0541 0.503256 8.96604 1.22635C3.80111 2.9898 2.99685 9.26888 2.40657 13.8583L2.25899 14.9872C1.55804 20.13 1.35882 25.7524 1.66134 32.1643C1.9122 37.4842 2.56152 43.0106 3.58713 48.574L3.77898 49.6365C4.49469 53.5545 5.23253 57.5979 6.53852 61.3092C6.58279 61.4273 6.70084 61.6634 7.32063 62.6964L7.47558 62.962C7.52722 63.0653 7.61576 63.1539 7.72644 63.2055C7.8076 63.2424 7.88878 63.2645 7.96994 63.2645C8.17654 63.2645 8.36837 63.1539 8.46429 62.9546C8.46429 62.9473 8.47167 62.9473 8.47167 62.9399C9.41612 61.0067 9.76292 58.9039 10.0949 56.86C10.272 55.8197 10.4491 54.7498 10.7 53.7316Z" fill="white" stroke="black" stroke-width="1.5"/>
</svg>
