<svg width="168" height="92" viewBox="0 0 168 92" fill="none" xmlns="http://www.w3.org/2000/svg">
<path d="M167.154 56.8677C166.541 45.6555 159.949 36.455 148.593 30.9657C138.983 26.3206 127.847 26.6519 119.216 27.4636C114.826 27.8762 110.396 28.4762 106.044 29.2526C102.376 29.9069 98.7004 30.8408 95.1467 31.7448C89.7334 33.1213 84.1327 34.5438 78.4696 34.9972C68.832 35.7709 58.7818 34.7311 49.3559 33.4905L48.813 33.4199C45.5145 32.9882 42.1047 32.5403 38.8958 31.5874C37.1121 31.058 29.8527 28.6092 29.2338 27.9631C29.9179 26.117 31.2237 21.5996 29.3152 17.9753C29.0057 17.3862 28.6392 16.8188 28.2863 16.2677C27.6483 15.2741 26.9913 14.2479 26.671 13.1158C26.2257 11.5385 26.4836 9.76843 27.3578 8.38116C28.3189 6.85544 29.9125 5.70164 31.4165 5.44102C31.5142 5.42473 31.5848 5.34057 31.5848 5.24012C31.5848 5.13968 31.5142 5.05552 31.4165 5.03651C25.8049 4.0076 19.7509 6.39392 16.3547 10.9765C13.0616 15.418 12.4644 21.6376 14.8072 26.6193C12.0707 25.7207 8.72063 26.6356 5.73705 29.125C2.05305 32.1901 0.160821 37.0143 0.410584 42.6991C0.600621 47.0184 2.63402 51.1096 5.84835 53.6425C5.92437 53.7022 6.03296 53.7022 6.10626 53.6371C6.17956 53.5746 6.20128 53.4688 6.15513 53.3846C5.15608 51.544 5.09092 49.1468 5.98681 47.1297C6.85826 45.1696 8.69619 43.6384 10.7812 43.1362C11.897 42.8674 13.0806 42.8756 14.2208 42.881C14.7747 42.8837 15.3475 42.8864 15.9094 42.8593C17.7365 42.7697 19.3926 42.0177 20.4188 40.8367C25.8457 49.8798 32.8852 58.3717 41.35 66.0791C45.8348 70.1621 51.1396 73.8543 58.0352 77.6903C63.8883 80.9481 69.2284 83.3426 74.3594 85.0122C83.2314 87.898 92.4237 89.7169 101.681 90.4201C104.499 90.6346 107.333 90.7404 110.173 90.7404C114.968 90.7404 119.775 90.4364 124.545 89.8283C129.345 89.2174 134.959 88.365 140.207 86.6872C145.243 85.0773 148.954 82.7779 151.547 79.664C152.022 79.5473 152.494 79.4305 152.972 79.3029C157.87 77.9808 162.604 74.0633 165.33 69.0817C167.42 65.2728 167.366 60.7798 167.154 56.8677Z" fill="#B4E2DD"/>
<path d="M110.179 91.1314C107.339 91.1314 104.472 91.0228 101.657 90.8083C92.3667 90.1025 83.1417 88.2754 74.2426 85.3814C69.0871 83.7037 63.7227 81.301 57.8478 78.0297C50.925 74.1774 45.5986 70.4717 41.0893 66.3641C32.7358 58.76 25.7587 50.3848 20.3481 41.4693C19.2405 42.5199 17.6604 43.1606 15.9284 43.2448C15.3746 43.2719 14.8262 43.2719 14.2181 43.2665C13.0887 43.2638 11.9349 43.2557 10.8707 43.5109C8.89975 43.9859 7.16227 45.4302 6.33968 47.2844C5.48994 49.193 5.54967 51.4571 6.49442 53.1946C6.62745 53.4416 6.57044 53.7511 6.35597 53.933C6.14421 54.1149 5.82929 54.1203 5.60668 53.9439C2.30547 51.3458 0.217776 47.146 0.0223094 42.7154C-0.232883 36.9057 1.70821 31.9729 5.48723 28.8237C8.31063 26.47 11.4109 25.4818 14.1312 26.0356C12.1331 21.0784 12.8634 15.0325 16.0451 10.7431C19.5282 6.04372 25.7343 3.59767 31.4897 4.65374C31.772 4.70532 31.9784 4.95237 31.9757 5.24014C31.9729 5.52791 31.7666 5.77224 31.4816 5.82111C30.0834 6.06272 28.593 7.14865 27.6863 8.58478C26.8691 9.87975 26.6302 11.5358 27.0428 13.0072C27.3469 14.085 27.9903 15.0868 28.612 16.0559C28.9731 16.6179 29.3423 17.1907 29.6572 17.7934C31.5521 21.396 30.3983 25.8211 29.6952 27.8219C30.8979 28.5169 36.7863 30.5558 39.0043 31.2155C42.1806 32.1602 45.5742 32.6027 48.8536 33.0344L49.4048 33.105C58.8116 34.3429 68.8374 35.38 78.437 34.609C84.0675 34.1583 89.6491 32.7385 95.0489 31.3675C98.6189 30.4607 102.3 29.5269 105.976 28.8699C110.339 28.0934 114.78 27.488 119.181 27.0754C127.86 26.2609 139.067 25.927 148.764 30.6155C160.253 36.17 166.921 45.4845 167.543 56.846C167.76 60.8124 167.814 65.3678 165.68 69.2663C162.906 74.3375 158.076 78.3283 153.081 79.6749C152.646 79.7916 152.215 79.8975 151.783 80.0061L151.769 80.0088C149.131 83.1335 145.387 85.4384 140.332 87.0564C135.054 88.7451 129.418 89.6002 124.602 90.2138C119.835 90.8246 114.981 91.1314 110.179 91.1314ZM20.4214 40.4485C20.4323 40.4485 20.4431 40.4485 20.4567 40.4513C20.5816 40.4621 20.6929 40.5327 20.7553 40.6386C26.1632 49.6518 33.181 58.1165 41.6132 65.794C46.0791 69.8581 51.3567 73.5312 58.2279 77.3537C64.0593 80.5979 69.3776 82.9842 74.4842 84.6457C83.3263 87.5207 92.4888 89.3342 101.716 90.0373C104.513 90.2491 107.361 90.3577 110.179 90.3577C114.948 90.3577 119.767 90.0509 124.502 89.4482C129.283 88.8374 134.875 87.9903 140.093 86.3207C145.056 84.7353 148.707 82.4766 151.254 79.4197C151.305 79.3572 151.379 79.3111 151.46 79.2921L151.596 79.2595C152.022 79.1536 152.448 79.0478 152.877 78.9337C157.674 77.6388 162.319 73.7946 164.996 68.9025C167.029 65.1832 166.975 60.7553 166.763 56.8976C166.158 45.832 159.642 36.751 148.422 31.3241C138.899 26.7197 127.83 27.0537 119.251 27.8572C114.872 28.2672 110.453 28.8699 106.112 29.6436C102.463 30.2951 98.7953 31.2263 95.2498 32.1249C89.8093 33.5068 84.1951 34.9348 78.4994 35.3908C68.8265 36.1673 58.7519 35.1248 49.3043 33.8841L48.7613 33.8135C45.4438 33.3792 42.0205 32.9312 38.7844 31.9675C37.5845 31.6118 29.7034 29.0273 28.9514 28.2373C28.8482 28.1287 28.8156 27.974 28.8672 27.8328C29.5133 26.0899 30.8137 21.662 28.9704 18.1599C28.669 17.5871 28.3107 17.0279 27.9632 16.4849C27.3062 15.4641 26.6329 14.4135 26.299 13.2217C25.8266 11.5385 26.1008 9.65171 27.032 8.17213C27.8709 6.84459 29.1658 5.78038 30.4961 5.289C25.2755 4.6646 19.8106 6.9749 16.6723 11.2073C13.4959 15.4913 12.8905 21.6186 15.1628 26.4537C15.228 26.5949 15.2063 26.7605 15.1031 26.8772C14.9999 26.9939 14.837 27.0374 14.6904 26.9885C12.0924 26.136 8.84002 27.0455 5.98947 29.4237C2.40049 32.4127 0.559842 37.1229 0.804176 42.6828C0.975209 46.603 2.70183 50.325 5.46551 52.8064C4.75966 50.9929 4.81124 48.8292 5.63654 46.9722C6.55686 44.9035 8.49524 43.2882 10.697 42.7588C11.8535 42.4819 13.0534 42.4874 14.2154 42.4928C14.8262 42.4955 15.3637 42.4982 15.8985 42.4711C17.5926 42.3896 19.1753 41.6838 20.1336 40.5843C20.2015 40.4974 20.3101 40.4485 20.4214 40.4485Z" fill="#201600"/>
<path d="M148.067 82.8919C139.002 83.2394 129.853 83.0901 120.821 82.4359C116.108 82.0965 111.303 81.6133 106.655 81.1436C92.4645 79.7156 77.8126 78.2442 63.6006 80.5952C67.3443 82.4223 70.9034 83.8883 74.3648 85.0122C83.2368 87.8981 92.4292 89.717 101.687 90.4201C104.505 90.6346 107.339 90.7405 110.179 90.7405C114.973 90.7405 119.781 90.4364 124.551 89.8283C129.351 89.2175 134.965 88.365 140.213 86.6873C143.318 85.6936 145.919 84.4394 148.067 82.8919Z" fill="#D4FAF5"/>
<path d="M144.703 84.8927C144.98 84.757 145.254 84.6158 145.52 84.4747C141.798 84.5181 138.071 84.6674 134.43 84.8167C127.426 85.1018 120.183 85.3977 113.078 84.9063C108.178 84.567 103.231 83.8475 98.4478 83.1498C95.5023 82.7209 92.4535 82.2757 89.4455 81.9255C83.1879 81.1952 75.0923 80.5952 67.0863 82.2132C67.3062 82.311 67.5261 82.4087 67.7433 82.5037C75.5049 81.0404 83.3236 81.6214 89.3966 82.3327C92.3992 82.6829 95.4425 83.1254 98.3854 83.5543C103.177 84.2521 108.132 84.9742 113.048 85.3135C115.82 85.5063 118.608 85.5769 121.399 85.5769C125.781 85.5769 130.157 85.3977 134.446 85.224C137.815 85.0855 141.26 84.947 144.703 84.8927Z" fill="#A7D9D3"/>
<path d="M125.175 87.1461C121.988 87.4474 118.695 87.7596 115.48 87.7949C108.93 87.8709 102.292 86.7796 95.8714 85.7262C87.8437 84.4122 79.5608 83.0575 71.3865 83.967C71.6797 84.0783 71.9756 84.1842 72.2688 84.2901C80.1173 83.5652 88.0826 84.8629 95.8089 86.128C102.045 87.1488 108.484 88.2048 114.872 88.2048C115.076 88.2048 115.282 88.2048 115.489 88.2021C118.719 88.1668 122.023 87.8546 125.218 87.5533C129.782 87.1216 134.452 86.6818 139.015 87.0483C139.363 86.9452 139.71 86.8474 140.055 86.7388C135.133 86.2067 130.094 86.6791 125.175 87.1461Z" fill="#A7D9D3"/>
<path d="M127.746 88.6419C125.585 88.6555 123.402 88.8618 121.29 89.0654C119.659 89.2202 117.973 89.3831 116.311 89.4509C110.385 89.698 104.374 88.7967 98.5618 87.9252C92.2472 86.9777 85.7289 86.0031 79.2812 86.4918C79.6912 86.6058 80.1038 86.7144 80.5165 86.8257C86.5298 86.5352 92.6055 87.4447 98.5021 88.3297C104.334 89.2039 110.36 90.1052 116.328 89.8582C118 89.7876 119.691 89.6274 121.328 89.4699C123.432 89.269 125.607 89.0627 127.749 89.0491C128.395 89.0464 129.019 89.0682 129.627 89.1034C130.151 89.0193 130.678 88.9297 131.207 88.8347C130.113 88.7071 128.96 88.6392 127.746 88.6419Z" fill="#A7D9D3"/>
<path d="M110.179 91.0011C107.342 91.0011 104.48 90.8925 101.668 90.6807C92.3884 89.9749 83.1743 88.1533 74.2833 85.2593C70.8138 84.1299 67.2818 82.6829 63.4865 80.8287C63.3861 80.7798 63.3263 80.6685 63.3426 80.5572C63.3589 80.4459 63.4458 80.3563 63.5571 80.34C77.8099 77.9836 92.4861 79.4604 106.679 80.8884C111.313 81.3554 116.105 81.8386 120.84 82.1807C129.831 82.8295 138.988 82.9843 148.056 82.634C148.167 82.6286 148.273 82.6992 148.311 82.8078C148.349 82.9164 148.311 83.0358 148.219 83.1037C146.039 84.6756 143.446 85.9271 140.294 86.937C135.025 88.6202 129.397 89.4754 124.586 90.0889C119.822 90.6943 114.976 91.0011 110.179 91.0011ZM64.4557 80.7201C67.9497 82.3924 71.2264 83.72 74.4435 84.7652C83.2938 87.6429 92.4671 89.4591 101.706 90.1622C104.505 90.374 107.355 90.4826 110.179 90.4826C114.954 90.4826 119.778 90.1758 124.518 89.5731C129.307 88.9623 134.905 88.1125 140.134 86.4402C142.889 85.5606 145.205 84.491 147.187 83.1824C138.391 83.4865 129.522 83.3236 120.804 82.6938C116.064 82.3517 111.267 81.8685 106.63 81.4015C92.7413 80.0061 78.3881 78.5618 64.4557 80.7201Z" fill="#201600"/>
<path d="M153.382 79.0315C153.341 78.8794 153.184 78.7871 153.032 78.8306C140.454 82.2268 128.68 81.6214 120.728 77.1718C120.59 77.0958 120.416 77.1447 120.34 77.2804C120.264 77.4189 120.313 77.5926 120.449 77.6686C125.08 80.2613 130.98 81.5725 137.566 81.5725C142.469 81.5725 147.752 80.845 153.181 79.379C153.333 79.3409 153.423 79.1835 153.382 79.0315Z" fill="#201600"/>
<path d="M127.665 53.8624C126.983 52.7005 125.582 52.0598 124.258 52.3014C122.933 52.5457 121.852 53.6452 121.632 54.9728C121.559 55.4126 121.855 55.8252 122.295 55.8985C122.729 55.9718 123.147 55.6759 123.221 55.2361C123.329 54.5846 123.902 54.0036 124.551 53.8842C125.2 53.7647 125.941 54.104 126.277 54.6742C126.427 54.9294 126.53 55.2633 126.59 55.6976C126.647 56.0994 126.991 56.3899 127.385 56.3899C127.423 56.3899 127.461 56.3872 127.499 56.3818C127.939 56.3193 128.246 55.9121 128.183 55.4723C128.091 54.8289 127.923 54.3022 127.665 53.8624Z" fill="#201600"/>
<path d="M119.531 52.3666C119.436 52.3666 119.346 52.315 119.298 52.2281C119.227 52.1005 119.276 51.9376 119.403 51.867C120.161 51.4571 120.967 51.1313 121.798 50.8978C121.939 50.8571 122.086 50.9413 122.124 51.0825C122.164 51.2236 122.08 51.3702 121.939 51.4109C121.146 51.6308 120.378 51.943 119.656 52.334C119.618 52.3557 119.574 52.3666 119.531 52.3666Z" fill="#201600"/>
<path d="M121.274 59.3327C120.712 59.3327 120.15 59.1698 119.678 58.8603C119.555 58.7789 119.52 58.616 119.602 58.4938C119.683 58.3717 119.846 58.3364 119.968 58.4178C120.465 58.7436 121.089 58.8685 121.676 58.768C121.82 58.7436 121.958 58.8386 121.982 58.9825C122.007 59.1264 121.912 59.2648 121.768 59.2893C121.602 59.3191 121.437 59.3327 121.274 59.3327Z" fill="#201600"/>
<path d="M158.953 63.9996C158.888 63.9996 158.82 63.9751 158.768 63.9263C158.662 63.8258 158.66 63.6575 158.76 63.5516L159.936 62.3273C160.036 62.2214 160.204 62.2187 160.31 62.3191C160.416 62.4196 160.419 62.5879 160.318 62.6938L159.143 63.9181C159.091 63.9697 159.021 63.9996 158.953 63.9996Z" fill="#201600"/>
<path d="M156.955 64.1489C156.895 64.1489 156.835 64.1299 156.786 64.0892C156.672 63.9969 156.656 63.8286 156.748 63.7145L157.921 62.2838C158.014 62.1698 158.182 62.1535 158.296 62.2458C158.41 62.3381 158.426 62.5065 158.334 62.6205L157.161 64.0512C157.109 64.1136 157.033 64.1489 156.955 64.1489Z" fill="#201600"/>
<path d="M155.019 63.8964C154.976 63.8964 154.932 63.8855 154.892 63.8638C154.764 63.7932 154.715 63.6304 154.786 63.5028C155.092 62.9489 155.464 62.4304 155.896 61.9689C155.997 61.8603 156.165 61.8576 156.271 61.9553C156.379 62.0558 156.385 62.2241 156.284 62.33C155.882 62.7616 155.535 63.2421 155.25 63.758C155.204 63.8475 155.114 63.8964 155.019 63.8964Z" fill="#201600"/>
<path d="M137.242 28.8998C136.976 28.8102 136.675 28.8047 136.436 28.802C135.396 28.7857 134.359 28.7532 133.32 28.7206L133.089 28.7124C132.842 28.7097 132.546 28.7504 132.312 28.8292C132.003 28.9351 131.829 29.0898 131.791 29.2907C131.759 29.4699 131.843 29.6436 132.044 29.8065C132.282 30.002 132.616 30.0834 132.945 30.1459C133.607 30.2707 134.281 30.3332 134.946 30.3332C135.603 30.3332 136.252 30.2735 136.873 30.1486C137.419 30.0427 137.712 29.8499 137.766 29.5649C137.818 29.2934 137.604 29.0192 137.242 28.8998Z" fill="#5A706F"/>
<path d="M134.946 30.5938C134.264 30.5938 133.575 30.5286 132.899 30.401C132.538 30.3332 132.166 30.2381 131.881 30.0074C131.533 29.725 131.503 29.4373 131.536 29.2445C131.59 28.9459 131.821 28.7233 132.228 28.5848C132.481 28.498 132.807 28.4464 133.092 28.4545L133.328 28.4627C134.482 28.498 135.445 28.5278 136.442 28.5441C136.702 28.5468 137.025 28.5522 137.327 28.6554C137.81 28.8183 138.098 29.2147 138.022 29.6165C137.908 30.2164 137.167 30.3603 136.922 30.4065C136.287 30.5286 135.622 30.5938 134.946 30.5938ZM133.054 28.973C132.836 28.973 132.584 29.0111 132.394 29.0762C132.274 29.1169 132.068 29.2065 132.046 29.3368C132.033 29.4156 132.087 29.5051 132.207 29.6056C132.399 29.7631 132.698 29.8364 132.991 29.8907C134.275 30.1323 135.608 30.1323 136.822 29.8961C137.115 29.8391 137.471 29.7278 137.509 29.5187C137.536 29.383 137.384 29.2228 137.158 29.1468C136.933 29.0708 136.656 29.0653 136.434 29.0626C135.432 29.0463 134.465 29.0165 133.309 28.9812L133.078 28.973C133.073 28.973 133.064 28.973 133.054 28.973Z" fill="#201600"/>
<path d="M136.027 19.7701C136.151 19.2679 136.285 18.7657 136.42 18.2634C136.608 17.563 136.803 16.8354 136.969 16.116C137.645 13.165 138.046 10.7488 138.228 8.50639C138.416 6.19066 138.516 3.53557 137.311 1.31757C136.874 0.511267 136.157 0.18549 135.389 0.451541C133.488 1.10038 133.192 3.41069 132.975 5.0993L132.921 5.51467C132.663 7.40689 132.59 9.47558 132.701 11.8348C132.793 13.7921 133.032 15.8255 133.41 17.8725L133.48 18.2634C133.743 19.705 134.015 21.1927 134.495 22.5583C134.512 22.6017 134.555 22.6886 134.783 23.0686L134.84 23.1664C134.859 23.2044 134.892 23.237 134.933 23.256C134.962 23.2695 134.992 23.2777 135.022 23.2777C135.098 23.2777 135.169 23.237 135.204 23.1637C135.204 23.1609 135.207 23.1609 135.207 23.1582C135.554 22.447 135.682 21.6732 135.804 20.9212C135.869 20.5384 135.934 20.1448 136.027 19.7701Z" fill="#CEEBEB"/>
<path d="M135.022 23.6357C134.935 23.6357 134.851 23.6167 134.772 23.5787C134.661 23.5244 134.577 23.4375 134.52 23.3317L134.471 23.2529C134.224 22.8348 134.18 22.7561 134.153 22.6774C133.662 21.2874 133.387 19.7834 133.121 18.331L133.048 17.9373C132.668 15.8714 132.429 13.8244 132.334 11.8507C132.22 9.46711 132.293 7.37942 132.557 5.46548L132.611 5.05011C132.839 3.26919 133.154 0.83129 135.266 0.10915C136.2 -0.211198 137.101 0.185164 137.623 1.14621C138.874 3.4538 138.774 6.17133 138.581 8.53593C138.396 10.7947 137.994 13.2298 137.313 16.1971C137.147 16.922 136.952 17.6496 136.765 18.3527C136.629 18.8576 136.496 19.3572 136.371 19.8567C136.281 20.2151 136.219 20.6033 136.157 20.9779C136.029 21.7571 135.896 22.5607 135.527 23.3181C135.432 23.5163 135.236 23.6357 135.022 23.6357ZM135.899 0.719983C135.771 0.719983 135.638 0.741701 135.505 0.787853C133.816 1.36339 133.537 3.5461 133.33 5.1397L133.276 5.55778C133.021 7.431 132.95 9.47525 133.059 11.8154C133.151 13.7565 133.387 15.7709 133.762 17.807L133.833 18.2007C134.093 19.6287 134.362 21.1028 134.834 22.4385C134.848 22.4683 134.929 22.6095 135.003 22.7344C135.242 22.1399 135.348 21.4937 135.451 20.8666C135.516 20.473 135.581 20.0739 135.679 19.6857C135.804 19.1807 135.939 18.6758 136.075 18.1735C136.262 17.4704 136.455 16.751 136.618 16.037C137.291 13.105 137.688 10.7023 137.87 8.47892C138.054 6.21476 138.152 3.62212 136.995 1.49099C136.721 0.986034 136.336 0.719983 135.899 0.719983Z" fill="#201600"/>
<path d="M146.948 15.7088C146.587 14.7505 145.819 14.0202 144.945 13.7976C143.292 13.3795 141.782 14.6881 140.805 15.8581C138.394 18.744 136.521 22.4606 135.799 25.8025C135.78 25.8921 135.82 25.9817 135.902 26.0251C135.932 26.0414 135.967 26.0495 136 26.0495C136.054 26.0495 136.105 26.0278 136.146 25.9871C137.205 24.9012 138.351 24.4641 139.678 23.9564C139.933 23.8587 140.199 23.7582 140.471 23.6497L140.536 23.6225C142.249 22.9384 144.019 22.2325 145.377 20.9484C146.677 19.7186 147.668 17.6201 146.948 15.7088Z" fill="#CEEBEB"/>
<path d="M135.997 26.4103C135.902 26.4103 135.809 26.3858 135.728 26.3424C135.511 26.2257 135.394 25.9732 135.445 25.7289C136.181 22.3326 138.079 18.5563 140.528 15.6298C142.026 13.838 143.584 13.086 145.034 13.4525C146.022 13.6995 146.886 14.5167 147.287 15.5836C148.064 17.6496 147.013 19.9002 145.626 21.2114C144.217 22.5417 142.414 23.2638 140.671 23.9588L140.604 23.986C140.335 24.0918 140.074 24.1923 139.822 24.29C138.516 24.7895 137.406 25.213 136.404 26.242C136.295 26.3478 136.149 26.4103 135.997 26.4103ZM144.309 14.0796C143.047 14.0796 141.877 15.1357 141.079 16.0886C138.823 18.7871 137.047 22.2213 136.265 25.3732C137.267 24.4909 138.331 24.0837 139.545 23.6195C139.811 23.5163 140.069 23.4186 140.335 23.3127L140.403 23.2855C142.083 22.615 143.821 21.92 145.129 20.6847C146.343 19.5364 147.274 17.5899 146.611 15.8334C146.291 14.9836 145.618 14.3375 144.858 14.1448C144.673 14.1013 144.491 14.0796 144.309 14.0796Z" fill="#201600"/>
<path d="M125.151 13.7976C124.274 14.0175 123.506 14.7505 123.148 15.7088C122.428 17.62 123.419 19.7186 124.719 20.9484C126.077 22.2325 127.847 22.9384 129.56 23.6225L129.628 23.6496C129.899 23.7582 130.165 23.8587 130.421 23.9564C131.802 24.4858 132.894 24.9012 133.953 25.9871C133.993 26.0278 134.045 26.0495 134.099 26.0495C134.132 26.0495 134.164 26.0414 134.197 26.0251C134.278 25.9817 134.319 25.8921 134.3 25.8025C133.578 22.4606 131.705 18.744 129.294 15.8581C128.314 14.6908 126.802 13.3822 125.151 13.7976Z" fill="#CEEBEB"/>
<path d="M134.099 26.4102C133.949 26.4102 133.8 26.3478 133.694 26.2419C132.69 25.2103 131.631 24.8058 130.29 24.2954C130.016 24.1895 129.758 24.0918 129.492 23.9859L129.427 23.9588C127.681 23.2611 125.878 22.5416 124.472 21.2114C123.085 19.8974 122.031 17.6495 122.811 15.5836C123.212 14.5167 124.076 13.6995 125.064 13.4497C126.514 13.0859 128.072 13.8379 129.568 15.6297C132.016 18.559 133.914 22.3326 134.65 25.7288C134.701 25.9732 134.585 26.2284 134.365 26.3451C134.283 26.3858 134.191 26.4102 134.099 26.4102ZM125.238 14.1474C124.475 14.3402 123.801 14.9863 123.481 15.8361C122.821 17.5925 123.75 19.5391 124.963 20.6874C126.272 21.9254 128.009 22.6177 129.69 23.2882L129.755 23.3154C130.018 23.4212 130.274 23.519 130.521 23.614C131.802 24.1027 132.831 24.4963 133.825 25.3759C133.043 22.224 131.267 18.7898 129.011 16.0912C128.104 14.9999 126.709 13.7782 125.238 14.1474Z" fill="#201600"/>
<path d="M99.41 65.8919C99.277 65.8078 99.1005 65.8431 99.0137 65.9761C95.5251 71.3379 89.9516 75.2418 83.7211 76.686C81.7665 77.1394 80.4118 76.9738 79.581 76.1811C78.9865 75.6164 78.6634 74.7124 78.5901 73.4228C78.3512 69.09 80.7104 64.7137 84.4596 62.5337C84.5953 62.455 84.6414 62.2785 84.5627 62.1428C84.484 62.007 84.3075 61.9582 84.1718 62.0396C80.2407 64.3255 77.7675 68.9135 78.0173 73.4554C78.096 74.8997 78.4788 75.9259 79.1847 76.5964C79.8227 77.2046 80.6914 77.5059 81.8126 77.5059C82.418 77.5059 83.094 77.419 83.8487 77.2426C90.2231 75.7657 95.9242 71.7722 99.4915 66.2883C99.5783 66.1553 99.5431 65.9788 99.41 65.8919Z" fill="#201600"/>
</svg>
