<svg width="27" height="27" viewBox="0 0 27 27" fill="none" xmlns="http://www.w3.org/2000/svg">
<path d="M5.13805 15.9335C6.8152 20.9741 12.0559 23.8413 16.8461 22.3351C21.6352 20.8294 24.1566 15.52 22.4812 10.4801C20.8041 5.43649 15.5616 2.57156 10.7737 4.07675C5.98346 5.583 3.46091 10.8899 5.13805 15.9335Z" fill="#1D1411"/>
<path d="M4.22804 16.6615L4.22805 16.6615C5.79632 21.3763 10.3203 24.0407 14.241 22.8085C18.1495 21.5792 20.2112 16.8576 18.6438 12.1454C17.0742 7.42792 12.5502 4.76396 8.63257 5.99617L8.63246 5.9962C4.72123 7.22542 2.65951 11.9469 4.22804 16.6615Z" fill="white" stroke="#1D1411"/>
<path d="M3.75326 16.8195C2.46798 12.9561 3.51309 9.00788 6.08357 6.84687C8.30958 7.63616 10.6231 10.4419 11.8643 14.1762C13.1411 18.0152 12.9033 21.696 11.4752 23.5578C8.15384 23.1969 5.01593 20.6156 3.75326 16.8195Z" fill="#414E8F"/>
<path d="M5.41206 16.2046C5.98091 17.9141 7.0492 19.1113 7.79906 18.8764C8.54604 18.6413 8.69096 17.063 8.1221 15.3534C7.55325 13.6439 6.48495 12.4467 5.73796 12.6818C4.98926 12.9162 4.84436 14.4945 5.41206 16.2046Z" fill="#1D1411"/>
</svg>
