<svg width="142" height="82" viewBox="0 0 142 82" fill="none" xmlns="http://www.w3.org/2000/svg">
<path d="M126.14 0H15.5094C7.22513 0 0.509399 6.71574 0.509399 15V66.4527C0.509399 74.737 7.22512 81.4527 15.5094 81.4527H126.14C134.424 81.4527 141.14 74.7369 141.14 66.4527V15C141.14 6.71573 134.424 0 126.14 0Z" fill="#FFE660"/>
<mask id="mask0" mask-type="alpha" maskUnits="userSpaceOnUse" x="0" y="0" width="142" height="82">
<path d="M126.14 0H15.5094C7.22513 0 0.509399 6.71574 0.509399 15V66.4527C0.509399 74.737 7.22512 81.4527 15.5094 81.4527H126.14C134.424 81.4527 141.14 74.7369 141.14 66.4527V15C141.14 6.71573 134.424 0 126.14 0Z" fill="white"/>
</mask>
<g mask="url(#mask0)">
<path d="M17.9865 105.781C21.0122 105.683 27.8888 118.655 37.1166 118.371C45.3685 118.114 50.6656 110.075 46.4243 102.001C42.1919 93.9264 34.1797 85.7899 22.9288 74.6277C18.7141 70.4486 13.6122 65.1957 10.3114 60.2446C7.48097 56.0034 6.16777 51.6024 5.35146 47.5208C4.57952 43.6434 5.03204 40.4846 7.17929 37.3436C10.9947 31.7802 15.5465 29.5354 20.6129 29.7306C24.9163 29.8992 29.7609 31.9133 32.9286 34.1582C35.7768 36.1812 38.6605 38.0889 41.2869 37.9114C44.0464 37.7251 46.5042 35.3472 47.4802 32.4368C48.7047 28.7812 48.7579 24.256 51.2778 20.7157C52.7862 18.5862 55.1819 16.8204 59.2546 15.8C68.1808 13.5641 77.5773 26.8912 78.296 28.302C79.0147 29.7128 101.401 26.0838 112.652 20.3164C123.912 14.549 124.16 10.5561 123.867 5.90671C123.575 1.24841 129.351 0.698296 133.007 4.5669C136.662 8.44438 136.174 26.6605 104.232 39.9877C65.9271 55.9679 43.7625 57.5828 43.7625 57.5828C43.7625 57.5828 51.4908 65.4531 74.4895 61.0698C93.3356 57.4763 114.604 42.3036 116.166 43.9096C117.718 45.5156 115.136 49.6592 106.299 55.6485C103.3 57.6804 100.461 58.4878 97.7455 60.5552C92.4661 64.5924 87.5505 69.0466 85.8468 70.7236C84.3828 72.1699 82.9898 74.8407 81.2862 78.0882C79.9552 80.6436 78.7219 83.8999 77.8701 88.1235C76.9118 92.8794 79.5293 101.513 77.8701 111.388C76.131 121.77 72.7593 123.376 68.4914 126.446C67.2314 127.351 65.306 128.753 63.4338 129.569C58.2431 131.832 51.5973 132.417 43.3011 132.204C38.2346 132.08 33.9845 131.326 30.4264 129.232C25.5197 126.357 21.6954 122.169 20.1959 118.646C17.5961 112.568 15.7151 105.852 17.9865 105.781Z" fill="#00A19A"/>
<path d="M28.5276 40.4757C29.5746 45.0009 26.2384 49.6415 21.0743 50.8393C15.9014 52.0372 10.8616 49.3487 9.81454 44.8235C8.75866 40.2983 12.0949 35.6577 17.2678 34.4599C22.4319 33.262 27.4717 35.9594 28.5276 40.4757Z" fill="#1D1511"/>
<path d="M29.4859 42.3657C30.4175 46.3674 27.3564 50.5022 22.6537 51.5935C17.9511 52.6849 13.3904 50.3247 12.4587 46.323C11.527 42.3213 14.5882 38.1954 19.2909 37.0951C23.9935 36.0038 28.5542 38.364 29.4859 42.3657Z" fill="white"/>
<path d="M24.6324 37.3347C20.7372 38.4616 18.3504 42.4455 19.282 46.4384C19.8055 48.6744 21.2607 50.4489 23.1418 51.4604C27.5694 50.2094 30.391 46.2343 29.4948 42.3657C28.9269 39.9611 27.0547 38.1599 24.6324 37.3347Z" fill="#FFD300"/>
<path d="M28.155 44.1403C28.4478 45.418 27.6581 46.6957 26.3804 46.9885C25.1027 47.2813 23.825 46.4916 23.5322 45.2139C23.2393 43.9362 24.029 42.6585 25.3067 42.3657C26.5756 42.0729 27.8533 42.8626 28.155 44.1403Z" fill="#1D1511"/>
<path d="M71.6235 26.1636C72.6173 30.4226 69.4674 34.7969 64.605 35.9238C59.7426 37.0507 54.9956 34.5219 54.0018 30.254C53.0081 25.995 56.158 21.6206 61.0203 20.4937C65.8916 19.3669 70.6386 21.9045 71.6235 26.1636Z" fill="#1D1511"/>
<path d="M72.4398 27.317C73.3183 31.088 70.4346 34.9744 66.007 36.0036C61.5794 37.0329 57.2848 34.8146 56.4064 31.0436C55.528 27.2726 58.4117 23.3863 62.8393 22.357C67.2669 21.3278 71.5614 23.5549 72.4398 27.317Z" fill="white"/>
<path d="M67.8614 22.5789C64.188 23.6347 61.9432 27.388 62.8216 31.1501C63.3096 33.2619 64.6849 34.93 66.4506 35.8794C70.6209 34.6993 73.2739 30.9549 72.431 27.317C71.9075 25.0544 70.1506 23.3597 67.8614 22.5789Z" fill="#FFD300"/>
<path d="M71.1799 28.9941C71.4638 30.2008 70.7096 31.3986 69.5029 31.6826C68.2962 31.9576 67.0983 31.2123 66.8144 30.0056C66.5304 28.7989 67.2846 27.601 68.4914 27.3171C69.6981 27.042 70.8959 27.7873 71.1799 28.9941Z" fill="#1D1511"/>
<path d="M107.435 22.5878C109.688 25.72 112.856 29.6773 113.912 28.6569C114.995 27.6099 113.477 23.413 112.244 20.5293C110.789 21.2569 109.165 21.9401 107.435 22.5878Z" fill="#B3CA5A"/>
<path d="M119.972 24.3358C121.179 22.6855 120.008 19.3581 118.695 16.6785C117.204 17.7876 115.305 18.9499 112.892 20.201C115.083 22.8274 118.517 26.3145 119.972 24.3358Z" fill="#B3CA5A"/>
<path d="M91.5965 36.332C93.5131 35.8884 92.821 30.8131 91.9869 26.9178C90.2478 27.2816 88.5886 27.5922 87.0536 27.8406C88.0829 31.8778 89.7243 36.7668 91.5965 36.332Z" fill="#B3CA5A"/>
<path d="M83.531 37.3791C85.5186 37.4146 85.9888 32.215 86.0509 28.0004C84.0101 28.3109 82.2444 28.515 80.9224 28.586C80.9667 32.3037 81.4281 37.3436 83.531 37.3791Z" fill="#B3CA5A"/>
<path d="M93.0695 26.6872C95.1457 30.4937 98.127 35.3294 99.4846 34.5042C100.887 33.6436 99.6354 28.7457 98.5618 25.3651C96.7074 25.8531 94.8618 26.2968 93.0695 26.6872Z" fill="#B3CA5A"/>
<path d="M106.698 31.5762C108.082 30.9994 107.16 26.4653 106.228 23.0226C104.099 23.7768 101.845 24.4689 99.5733 25.09C101.827 28.0891 105.234 32.1795 106.698 31.5762Z" fill="#B3CA5A"/>
<path d="M39.255 57.5384C39.8939 60.289 38.1814 63.0396 35.4308 63.6873C32.6801 64.3262 29.9207 62.6137 29.2818 59.8631C28.643 57.1125 30.3554 54.3618 33.106 53.7141C35.8655 53.0753 38.6161 54.7877 39.255 57.5384Z" fill="#EE7330"/>
<path d="M21.3316 80.395C23.053 81.7881 25.5729 80.3684 27.312 79.002C25.919 77.6 24.4638 76.1538 22.9465 74.6542C21.2252 76.0739 19.0247 78.5228 21.3316 80.395Z" fill="#B3CA5A"/>
<path d="M16.6911 74.2461C17.6316 75.4617 20.1072 74.7253 22.1302 73.838C20.817 72.507 19.5038 71.1228 18.2261 69.6854C16.9484 71.1938 15.7949 73.0749 16.6911 74.2461Z" fill="#B3CA5A"/>
<path d="M25.8391 87.1119C27.6669 89.126 31.713 87.3781 34.1531 86.0294C32.4051 84.166 30.5151 82.2229 28.4921 80.191C26.6554 82.2939 24.3751 85.497 25.8391 87.1119Z" fill="#B3CA5A"/>
<path d="M65.2705 57.1746C66.1312 57.219 66.4772 54.7168 66.6192 53.0398C65.2882 53.3947 64.0105 53.723 62.7949 54.0247C63.5136 55.3379 64.4453 57.1302 65.2705 57.1746Z" fill="white"/>
<path d="M79.13 53.0399C79.8399 52.8713 79.8576 50.8128 79.7512 49.1269C78.5089 49.535 77.2845 49.9255 76.1044 50.2892C77.0538 51.5936 78.4025 53.2085 79.13 53.0399Z" fill="white"/>
<path d="M70.1861 55.4799C71.2597 55.2315 71.0379 53.3149 70.7096 51.8953C69.5384 52.2324 68.4204 52.543 67.3201 52.8358C67.9856 54.0869 69.0858 55.7373 70.1861 55.4799Z" fill="white"/>
<path d="M83.9658 50.9991C84.6668 50.937 84.8886 49.0382 84.9418 47.379C83.602 47.8404 82.2977 48.284 81.02 48.7099C82.0226 49.8368 83.2737 51.0613 83.9658 50.9991Z" fill="white"/>
<path d="M88.8814 49.3133C89.8397 48.985 89.8663 47.1926 89.7155 45.6842C88.4733 46.1367 87.2488 46.5715 86.0509 46.9974C86.8495 48.2751 87.9497 49.6238 88.8814 49.3133Z" fill="white"/>
<path d="M103.664 40.2362C104.87 41.4341 106.441 42.7295 107.151 42.135C107.799 41.6026 107.55 40.0587 107.169 38.7189C106.219 39.1537 105.243 39.5796 104.232 39.9966C104.045 40.0765 103.859 40.1564 103.664 40.2362Z" fill="white"/>
<path d="M111.472 40.2184C112.404 39.686 112.075 37.938 111.64 36.545C110.478 37.1483 109.263 37.7517 107.994 38.3462C109.112 39.5263 110.576 40.733 111.472 40.2184Z" fill="white"/>
<path d="M93.8325 47.7959C94.6134 47.5031 94.3472 45.6309 93.9834 44.0959C92.8654 44.5218 91.7563 44.9388 90.6738 45.3381C91.6942 46.6247 93.0517 48.0798 93.8325 47.7959Z" fill="white"/>
<path d="M102.936 43.6611C103.779 43.3683 103.433 41.8244 102.963 40.5201C101.809 40.9992 100.674 41.4606 99.5467 41.9131C100.709 42.9247 102.129 43.9539 102.936 43.6611Z" fill="white"/>
<path d="M98.5352 45.9681C99.4225 45.764 99.0321 43.883 98.5352 42.3124C97.3196 42.7916 96.1306 43.2618 94.9505 43.7144C96.1129 44.8767 97.6479 46.1722 98.5352 45.9681Z" fill="white"/>
<path d="M75.2171 54.3087C76.0068 53.9095 75.7672 51.9752 75.4567 50.4845C74.0636 50.9104 72.7238 51.3097 71.4106 51.6912C72.5996 53.0044 74.383 54.7435 75.2171 54.3087Z" fill="white"/>
<path d="M127.922 24.4335C129.147 25.2587 130.549 26.0306 130.913 25.4539C131.25 24.9126 130.531 23.4752 129.741 22.1975C129.191 22.934 128.588 23.6793 127.922 24.4335Z" fill="white"/>
<path d="M120.833 30.8486C122.146 31.5673 123.681 32.2683 124.187 31.9577C124.702 31.6383 124.142 30.0944 123.513 28.728C122.678 29.4378 121.782 30.1476 120.833 30.8486Z" fill="white"/>
<path d="M124.577 27.7964C125.899 28.4796 127.434 29.1096 128.011 28.6837C128.606 28.2489 127.949 26.6163 127.23 25.1966C126.423 26.0661 125.536 26.9357 124.577 27.7964Z" fill="white"/>
<path d="M130.256 21.4966C131.312 22.1532 132.465 22.6057 133.007 21.8604C133.61 21.0263 132.811 19.7575 131.96 18.7726C131.472 19.6599 130.904 20.5738 130.256 21.4966Z" fill="white"/>
<path d="M132.465 17.7876C133.397 17.903 134.391 17.8497 134.852 17.2197C135.349 16.5454 134.577 15.5428 133.708 14.7264C133.397 15.7025 132.989 16.7317 132.465 17.7876Z" fill="white"/>
<path d="M60.5057 57.92C61.7479 57.8578 61.7479 55.8171 61.7036 54.2998C60.1419 54.6813 58.6779 55.0185 57.3115 55.3113C58.1721 56.5624 59.3877 57.9732 60.5057 57.92Z" fill="white"/>
<path d="M55.1198 59.171C56.3975 59.0911 56.5306 57.1125 56.4241 55.5065C54.9867 55.817 53.6558 56.0832 52.4579 56.305C53.0347 57.707 53.9308 59.242 55.1198 59.171Z" fill="white"/>
<path d="M50.3107 59.739C51.0649 59.5615 51.4198 57.9289 51.5884 56.4648C50.5946 56.6423 49.6807 56.802 48.8733 56.9351C49.0773 58.2927 49.4944 59.9253 50.3107 59.739Z" fill="white"/>
<path d="M112.306 36.1901C113.415 37.2726 114.932 38.4438 115.873 37.9114C116.778 37.3879 116.405 35.6045 115.908 34.1404C114.782 34.8325 113.575 35.5157 112.306 36.1901Z" fill="white"/>
<path d="M116.902 33.5282C118.304 34.5574 120.088 35.6311 120.673 34.9656C121.223 34.3445 120.593 32.8006 119.892 31.5229C118.961 32.1972 117.958 32.8716 116.902 33.5282Z" fill="white"/>
<path d="M96.4766 53.2084C97.5059 52.7204 98.5085 52.2235 99.4846 51.7355C98.686 50.511 97.6479 49.0914 97.0445 49.3132C96.3968 49.5439 96.379 51.5758 96.4766 53.2084Z" fill="white"/>
<path d="M85.0305 58.0885C85.9799 57.7424 86.9204 57.3786 87.861 57.006C87.089 55.9235 86.0775 54.7168 85.5363 54.9208C85.0394 55.116 84.9773 56.6777 85.0305 58.0885Z" fill="white"/>
<path d="M89.7066 53.2173C89.0322 53.5456 88.8548 55.2225 88.837 56.6156C89.8929 56.1808 90.9399 55.7372 91.9692 55.2846C91.3215 54.1666 90.4075 52.889 89.7066 53.2173Z" fill="white"/>
<path d="M62.5199 59.6857C61.8455 59.6236 61.5439 61.0077 61.4108 62.4096C62.236 62.4096 63.1055 62.3919 64.0017 62.3476C63.6911 61.061 63.2031 59.7478 62.5199 59.6857Z" fill="white"/>
<path d="M107.408 47.6273C106.734 46.6335 105.811 45.5776 105.057 45.8349C104.258 46.1011 104.214 47.8491 104.303 49.2599C105.394 48.6832 106.432 48.133 107.408 47.6273Z" fill="white"/>
<path d="M100.469 51.2386C101.561 50.6885 102.617 50.1384 103.637 49.606C102.909 48.4791 101.871 47.1571 101.135 47.3257C100.363 47.512 100.363 49.5705 100.469 51.2386Z" fill="white"/>
<path d="M93.4066 52.0638C92.75 52.3832 92.6169 53.794 92.6258 54.9918C93.6284 54.5393 94.6222 54.0868 95.5982 53.6254C94.915 52.6937 94.0454 51.7621 93.4066 52.0638Z" fill="white"/>
<path d="M58.4206 59.7567C57.7285 59.6946 57.5066 60.9634 57.4534 62.2323C58.3496 62.3121 59.3078 62.3654 60.3105 62.392C59.7604 61.0877 59.0683 59.8188 58.4206 59.7567Z" fill="white"/>
<path d="M65.0043 62.3032C66.1134 62.2322 67.2757 62.1346 68.5002 62.0015C67.9678 60.635 67.2757 59.242 66.6635 59.1621C66.0069 59.0734 65.4124 60.7504 65.0043 62.3032Z" fill="white"/>
<path d="M109.192 43.9894C108.588 44.2112 108.393 45.7728 108.34 47.1304C109.254 46.6512 110.097 46.2076 110.877 45.8083C110.381 44.7791 109.742 43.7853 109.192 43.9894Z" fill="white"/>
<path d="M69.423 61.8773C70.2837 61.7708 71.171 61.6466 72.0849 61.4958C71.6235 60.1293 70.9935 58.6742 70.3635 58.5943C69.7158 58.5145 69.494 60.2447 69.423 61.8773Z" fill="white"/>
<path d="M81.0998 59.4106C82.0847 59.1089 83.0696 58.7806 84.0545 58.4346C83.3003 57.2279 82.3686 55.959 81.8451 56.0744C81.3039 56.1986 81.1442 57.8933 81.0998 59.4106Z" fill="white"/>
<path d="M77.2756 60.4665C78.296 60.2181 79.3252 59.943 80.3545 59.6324C79.76 58.2571 78.8727 56.802 77.8257 57.1569C77.0981 57.4054 77.107 59.0113 77.2756 60.4665Z" fill="white"/>
<path d="M72.9633 61.3537C73.469 61.265 73.9748 61.1762 74.4894 61.0786C75.1549 60.9544 75.8293 60.8036 76.5036 60.6439C75.7405 59.3041 74.7822 57.8666 74.1523 57.8578C73.5134 57.8489 73.1585 59.6945 72.9633 61.3537Z" fill="white"/>
</g>
</svg>
