<svg width="108" height="82" viewBox="0 0 108 82" fill="none" xmlns="http://www.w3.org/2000/svg">
<path d="M10.5324 60.371L47.5876 67.5975C47.641 67.336 47.7235 66.9828 47.8485 66.5471C48.1338 65.553 48.6408 64.13 49.5301 62.3872C51.3095 58.9003 54.6151 54.1421 60.7237 48.9798C63.8364 46.3486 67.9372 44.729 72.3082 43.576C75.8373 42.6452 79.5831 42.0092 83.1673 41.4007C84.0213 41.2557 84.8661 41.1123 85.6965 40.9668C90.0381 40.2063 93.974 39.3916 96.9087 38.0219C99.825 36.6608 101.661 34.7984 101.983 31.9638C102.311 29.0795 101.113 26.2092 98.6368 23.6448C96.1587 21.0783 92.4247 18.848 87.7778 17.2829C78.4876 14.1538 65.6398 13.7152 52.1939 18.4641C38.7825 23.2008 28.2999 33.797 21.155 43.2552C17.5867 47.9789 14.8607 52.4057 13.0272 55.651C12.1106 57.2733 11.4174 58.5996 10.954 59.5192C10.7815 59.8614 10.6409 60.1472 10.5324 60.371Z" fill="white" stroke="#193D57" stroke-width="1.5"/>
</svg>
