<svg width="66" height="73" viewBox="0 0 66 73" fill="none" xmlns="http://www.w3.org/2000/svg">
<path d="M3.92877 18.1087L8.75868 35.3487C8.79477 35.3456 8.83302 35.3424 8.87337 35.3391C9.21825 35.3112 9.71717 35.2775 10.3381 35.254C11.5794 35.2071 13.3114 35.201 15.277 35.3641C19.1932 35.6892 24.1038 36.6914 27.8903 39.4459C29.7661 40.8104 32.0933 43.093 34.6177 45.5872C34.7224 45.6907 34.8275 45.7945 34.9329 45.8987C37.3837 48.321 40.0273 50.9338 42.6825 53.1718C45.4592 55.5122 48.2035 57.4029 50.7085 58.2451C53.1848 59.0778 55.3614 58.8715 57.1539 57.116C58.9979 55.3101 59.9604 52.596 60.0643 49.3303C60.1681 46.067 59.4113 42.2959 57.8655 38.4485C54.7732 30.7514 48.5595 22.8364 39.9776 18.1697C31.4155 13.5139 22.3208 13.5312 15.3369 14.7285C11.8477 15.3267 8.89611 16.2178 6.81786 16.9589C5.77907 17.3294 4.95945 17.6621 4.40107 17.9014C4.21363 17.9817 4.05567 18.0515 3.92877 18.1087Z" fill="white" stroke="#193D57" stroke-width="1.5"/>
</svg>
