<svg width="104" height="114" viewBox="0 0 104 114" fill="none" xmlns="http://www.w3.org/2000/svg">
<path d="M63.9752 43.9329C62.1402 42.1626 60.2006 39.9555 58.1404 37.6113C57.7447 37.161 57.3445 36.7057 56.9398 36.2474C54.4194 33.3935 51.7093 30.4102 48.7454 27.7522C42.8137 22.4328 35.9353 18.4785 27.635 19.4417L27.5774 18.9455L27.635 19.4417C19.3653 20.4012 14.9463 25.6184 12.7897 31.9148C10.6237 38.2388 10.7636 45.6116 11.6381 50.6873C12.8158 57.5257 14.7436 62.3456 17.2923 65.5971C19.8291 68.8334 23.0026 70.5446 26.7502 71.1343L26.6725 71.6283L26.7503 71.1343C30.4456 71.7161 35.0301 70.7169 38.7417 69.5395C40.5872 68.954 42.1972 68.331 43.3457 67.8544C43.9197 67.6162 44.3777 67.4148 44.6916 67.2733C44.8485 67.2025 44.9693 67.1468 45.0505 67.1089C45.0911 67.09 45.1218 67.0755 45.1421 67.0659L45.1648 67.0552L45.1702 67.0526L45.1714 67.052L45.1716 67.0519L46.8425 66.2487L45.802 67.7831L45.3882 67.5025C45.802 67.7831 45.802 67.7833 45.8019 67.7834L45.8016 67.7837L45.8009 67.7848L45.7984 67.7885L45.7893 67.8017L45.7551 67.8511C45.7435 67.8677 45.7297 67.8873 45.7139 67.9098C45.689 67.9449 45.659 67.9871 45.624 68.0356C45.5093 68.1948 45.3408 68.4236 45.123 68.7054C44.6876 69.2686 44.0545 70.0449 43.2609 70.9005C41.6792 72.6057 39.4356 74.6525 36.8287 75.94C34.8655 76.9094 33.142 77.3485 31.795 77.6917C31.3296 77.8102 30.9092 77.9174 30.5393 78.0309C29.802 78.2573 29.2833 78.4998 28.9146 78.8629C28.5578 79.2143 28.2931 79.7281 28.1729 80.5975C28.0278 81.6471 28.3363 82.9279 29.1566 84.3389C29.9743 85.7455 31.2817 87.2471 33.0693 88.7178C36.6434 91.658 42.0945 94.4387 49.2274 96.0719C56.306 97.6927 65.147 96.4428 72.2682 94.7605C75.819 93.9217 78.9231 92.9801 81.1393 92.2483C82.2472 91.8825 83.1325 91.5693 83.7401 91.3478C84.0264 91.2435 84.251 91.1595 84.4081 91.1001L89.9618 55.9817C89.869 55.9606 89.7632 55.9362 89.6449 55.9085C89.1443 55.7912 88.4207 55.6146 87.5259 55.3766C85.7367 54.9006 83.2604 54.1784 80.5107 53.1929C75.0274 51.2276 68.3925 48.1933 63.9752 43.9329Z" fill="white" stroke="#193D57" stroke-width="1.5"/>
</svg>
