<svg width="65" height="74" viewBox="0 0 65 74" fill="none" xmlns="http://www.w3.org/2000/svg">
<path d="M20.9132 11.589C20.6339 11.0069 20.4175 10.5231 20.2618 10.1608L5.48822 26.4025C5.52162 26.5005 5.5646 26.6245 5.61748 26.7728C5.76773 27.1942 5.99797 27.8126 6.31617 28.5947C6.95263 30.1589 7.94064 32.3772 9.34387 34.9843C12.1511 40.2 16.6152 46.9625 23.2428 53.158C29.8085 59.2957 39.0694 61.9866 46.8314 61.7046C50.711 61.5637 54.1783 60.6812 56.7312 59.1513C59.2752 57.6266 60.8897 55.4767 61.1631 52.7684C61.7213 47.2397 58.6088 43.4579 53.7649 40.0777C51.3431 38.3876 48.5203 36.8211 45.5583 35.2005C45.3629 35.0936 45.1669 34.9864 44.9704 34.879C42.1967 33.3627 39.3229 31.7917 36.6002 30.036C30.7253 26.2478 26.567 21.0912 23.8806 16.8951C22.5361 14.7951 21.557 12.9304 20.9132 11.589Z" fill="white" stroke="#193D57" stroke-width="1.5"/>
</svg>
