<svg width="456" height="236" viewBox="0 0 456 236" fill="none" xmlns="http://www.w3.org/2000/svg">
<path d="M454.245 142.513C452.578 112.04 434.663 87.0347 403.799 72.1155C377.679 59.4909 347.412 60.3911 323.956 62.5972C312.025 63.7188 299.984 65.3494 288.156 67.4596C278.188 69.2379 268.197 71.7761 258.539 74.2331C243.826 77.974 228.604 81.8403 213.213 83.0725C187.019 85.1754 159.704 82.3494 134.086 78.9774L132.61 78.7856C123.645 77.6124 114.378 76.395 105.657 73.8051C100.809 72.3663 81.0791 65.711 79.3968 63.9549C81.2562 58.9375 84.8052 46.6597 79.6181 36.8095C78.777 35.2083 77.7809 33.6662 76.8217 32.1684C75.0878 29.4679 73.3022 26.6788 72.4315 23.602C71.2214 19.3151 71.9224 14.5043 74.2983 10.734C76.9102 6.58725 81.2414 3.4514 85.3291 2.74307C85.5947 2.69879 85.7865 2.47006 85.7865 2.19706C85.7865 1.92406 85.5947 1.69532 85.3291 1.64367C70.0778 -1.15277 53.6238 5.33291 44.3933 17.7878C35.4432 29.859 33.82 46.763 40.1876 60.3025C32.7501 57.8603 23.6451 60.3468 15.5361 67.1129C5.52353 75.4432 0.380739 88.5547 1.05955 104.005C1.57605 115.744 7.10252 126.864 15.8386 133.748C16.0452 133.91 16.3404 133.91 16.5396 133.733C16.7388 133.563 16.7978 133.276 16.6724 133.047C13.9571 128.044 13.78 121.529 16.2149 116.047C18.5834 110.72 23.5786 106.558 29.2453 105.193C32.2779 104.463 35.4949 104.485 38.5938 104.5C40.099 104.507 41.6559 104.514 43.1832 104.441C48.149 104.197 52.6498 102.153 55.4389 98.9436C70.1885 123.521 89.3208 146.601 112.327 167.549C124.516 178.646 138.934 188.681 157.675 199.106C173.583 207.961 188.096 214.468 202.042 219.006C226.155 226.849 251.138 231.793 276.299 233.704C283.958 234.287 291.661 234.575 299.379 234.575C312.409 234.575 325.476 233.748 338.44 232.096C351.485 230.435 366.744 228.118 381.007 223.559C394.694 219.183 404.78 212.934 411.826 204.471C413.118 204.153 414.402 203.836 415.7 203.489C429.011 199.896 441.879 189.249 449.287 175.709C454.968 165.357 454.821 153.146 454.245 142.513Z" fill="white" stroke="black" stroke-width="1.5"/>
</svg>
