<svg width="456" height="248" viewBox="0 0 456 248" fill="none" xmlns="http://www.w3.org/2000/svg">
<path d="M454.243 154.534C452.575 124.061 434.66 99.0552 403.796 84.1361C377.677 71.5116 347.41 72.4117 323.954 74.6179C312.024 75.7394 299.982 77.37 288.154 79.4803C278.186 81.2585 268.196 83.7967 258.537 86.2537C243.825 89.9945 228.603 93.8608 213.212 95.093C187.018 97.1959 159.703 94.3699 134.085 90.998L132.61 90.8062C123.645 89.633 114.377 88.4155 105.656 85.8257C100.809 84.3869 81.0786 77.7316 79.3963 75.9755C81.2557 70.9582 84.8047 58.6805 79.6177 48.8303C78.7766 47.2291 77.7805 45.6871 76.8213 44.1892C75.0873 41.4887 73.3018 38.6997 72.4311 35.6229C71.221 31.336 71.922 26.5253 74.2979 22.7549C76.9098 18.6082 81.241 15.4724 85.3286 14.7641C85.5942 14.7198 85.7861 14.4911 85.7861 14.218C85.7861 13.945 85.5942 13.7163 85.3286 13.6647C70.0774 10.8682 53.6235 17.3539 44.3931 29.8087C35.443 41.8798 33.8198 58.7838 40.1874 72.3232C32.7499 69.8809 23.6449 72.3675 15.536 79.1335C5.5235 87.4637 0.380739 100.575 1.05955 116.026C1.57604 127.765 7.10249 138.884 15.8385 145.768C16.0451 145.93 16.3403 145.93 16.5395 145.753C16.7387 145.584 16.7977 145.296 16.6723 145.067C13.957 140.065 13.78 133.549 16.2148 128.067C18.5833 122.74 23.5785 118.579 29.2452 117.214C32.2777 116.483 35.4947 116.505 38.5936 116.52C40.0988 116.527 41.6557 116.535 43.183 116.461C48.1487 116.217 52.6495 114.174 55.4386 110.964C70.1881 135.542 89.3203 158.621 112.326 179.569C124.515 190.666 138.933 200.7 157.674 211.126C173.582 219.98 188.095 226.488 202.041 231.026C226.153 238.869 251.137 243.813 276.297 245.724C283.956 246.307 291.659 246.594 299.377 246.594C312.407 246.594 325.474 245.768 338.438 244.115C351.483 242.455 366.742 240.138 381.004 235.578C394.691 231.203 404.778 224.953 411.824 216.49C413.115 216.173 414.399 215.856 415.698 215.509C429.009 211.916 441.877 201.269 449.284 187.729C454.966 177.377 454.818 165.166 454.243 154.534Z" stroke="black" stroke-width="1.5"/>
<path d="M285.805 183.819C285.466 183.559 284.979 183.611 284.711 183.949C273.951 197.604 257.905 206.8 240.686 209.177C235.283 209.924 231.657 209.143 229.604 206.793C228.133 205.118 227.481 202.592 227.6 199.083C228.019 187.297 235.481 176.032 246.164 171.053C246.551 170.873 246.72 170.407 246.54 170.02C246.36 169.634 245.894 169.458 245.507 169.645C234.305 174.865 226.482 186.676 226.042 199.031C225.899 202.959 226.683 205.831 228.429 207.819C230.006 209.622 232.283 210.652 235.318 210.927C236.957 211.076 238.808 211.007 240.894 210.715C258.511 208.285 274.924 198.878 285.928 184.912C286.196 184.573 286.144 184.087 285.805 183.819Z" fill="#201600"/>
<path d="M402.421 225.308C377.785 226.253 352.919 225.847 328.371 224.069C315.562 223.146 302.502 221.833 289.871 220.557C251.304 216.675 211.482 212.676 172.856 219.066C183.031 224.032 192.704 228.016 202.112 231.071C226.224 238.914 251.208 243.858 276.368 245.769C284.027 246.352 291.73 246.639 299.448 246.639C312.478 246.639 325.545 245.813 338.509 244.16C351.554 242.5 366.813 240.183 381.075 235.623C389.516 232.923 396.585 229.514 402.421 225.308Z" stroke="black" stroke-width="1.5"/>
<path d="M393.279 230.746C394.032 230.377 394.777 229.993 395.5 229.61C385.384 229.728 375.254 230.134 365.359 230.539C346.323 231.314 326.637 232.118 307.328 230.783C294.01 229.861 280.566 227.905 267.566 226.009C259.56 224.843 251.274 223.633 243.099 222.681C226.091 220.697 204.089 219.066 182.33 223.464C182.928 223.729 183.525 223.995 184.116 224.253C205.21 220.276 226.46 221.855 242.966 223.788C251.126 224.74 259.398 225.943 267.396 227.108C280.419 229.005 293.884 230.967 307.247 231.89C314.78 232.414 322.358 232.605 329.943 232.605C341.852 232.605 353.746 232.118 365.404 231.646C374.56 231.27 383.923 230.894 393.279 230.746Z" fill="#A7D9D3"/>
<path d="M340.206 236.87C331.544 237.689 322.594 238.538 313.858 238.634C296.054 238.84 278.013 235.874 260.563 233.011C238.745 229.44 216.234 225.758 194.017 228.23C194.814 228.533 195.618 228.82 196.415 229.108C217.746 227.138 239.395 230.665 260.394 234.103C277.342 236.878 294.844 239.748 312.205 239.748C312.758 239.748 313.319 239.748 313.88 239.74C322.66 239.644 331.64 238.796 340.324 237.977C352.727 236.804 365.418 235.608 377.821 236.605C378.766 236.324 379.71 236.059 380.647 235.763C367.27 234.317 353.576 235.601 340.206 236.87Z" fill="#A7D9D3"/>
<path d="M347.194 240.936C341.321 240.973 335.388 241.533 329.648 242.087C325.213 242.507 320.631 242.95 316.116 243.134C300.009 243.806 283.673 241.356 267.876 238.988C250.713 236.413 232.998 233.764 215.474 235.092C216.588 235.402 217.71 235.697 218.831 236C235.174 235.21 251.687 237.682 267.713 240.087C283.562 242.463 299.942 244.913 316.16 244.241C320.705 244.049 325.302 243.614 329.751 243.186C335.469 242.64 341.38 242.079 347.201 242.042C348.957 242.035 350.654 242.094 352.307 242.19C353.731 241.961 355.163 241.718 356.601 241.46C353.628 241.113 350.492 240.928 347.194 240.936Z" fill="#A7D9D3"/>
<path d="M416.868 214.816C416.757 214.403 416.33 214.152 415.916 214.27C381.732 223.5 349.732 221.855 328.12 209.762C327.744 209.555 327.272 209.688 327.065 210.057C326.859 210.433 326.992 210.905 327.36 211.112C339.948 218.158 355.981 221.722 373.881 221.722C387.207 221.722 401.565 219.745 416.322 215.76C416.735 215.657 416.979 215.229 416.868 214.816Z" fill="#201600"/>
<path d="M346.972 146.411C345.12 143.253 341.313 141.511 337.712 142.168C334.112 142.832 331.175 145.82 330.577 149.428C330.378 150.624 331.182 151.745 332.378 151.944C333.558 152.144 334.694 151.339 334.894 150.144C335.189 148.373 336.746 146.794 338.509 146.47C340.272 146.145 342.287 147.067 343.202 148.617C343.608 149.31 343.888 150.218 344.05 151.398C344.205 152.49 345.142 153.28 346.212 153.28C346.315 153.28 346.419 153.273 346.522 153.258C347.717 153.088 348.551 151.981 348.381 150.786C348.131 149.037 347.673 147.606 346.972 146.411Z" fill="#201600"/>
<path d="M324.866 142.345C324.608 142.345 324.365 142.205 324.232 141.969C324.04 141.622 324.173 141.179 324.52 140.987C326.578 139.873 328.77 138.988 331.027 138.353C331.411 138.243 331.81 138.471 331.913 138.855C332.023 139.239 331.795 139.637 331.411 139.748C329.257 140.345 327.168 141.194 325.206 142.256C325.103 142.315 324.984 142.345 324.866 142.345Z" fill="#201600"/>
<path d="M329.604 161.278C328.076 161.278 326.549 160.835 325.265 159.994C324.933 159.773 324.837 159.33 325.058 158.998C325.28 158.666 325.722 158.57 326.055 158.791C327.405 159.677 329.102 160.016 330.696 159.743C331.087 159.677 331.463 159.935 331.529 160.326C331.596 160.717 331.337 161.094 330.946 161.16C330.496 161.241 330.046 161.278 329.604 161.278Z" fill="#201600"/>
<path d="M432.008 173.962C431.831 173.962 431.647 173.895 431.507 173.762C431.219 173.489 431.212 173.032 431.485 172.744L434.679 169.417C434.952 169.129 435.41 169.121 435.698 169.394C435.985 169.667 435.993 170.125 435.72 170.413L432.525 173.74C432.385 173.88 432.193 173.962 432.008 173.962Z" fill="#201600"/>
<path d="M426.578 174.367C426.416 174.367 426.253 174.316 426.12 174.205C425.811 173.954 425.766 173.497 426.017 173.187L429.205 169.298C429.455 168.989 429.913 168.944 430.223 169.195C430.533 169.446 430.577 169.903 430.326 170.213L427.139 174.102C426.998 174.271 426.792 174.367 426.578 174.367Z" fill="#201600"/>
<path d="M421.317 173.681C421.199 173.681 421.081 173.652 420.97 173.593C420.624 173.401 420.491 172.958 420.683 172.611C421.516 171.106 422.527 169.697 423.7 168.443C423.973 168.147 424.431 168.14 424.719 168.406C425.014 168.679 425.029 169.136 424.756 169.424C423.664 170.597 422.719 171.903 421.944 173.305C421.819 173.548 421.576 173.681 421.317 173.681Z" fill="#201600"/>
<path d="M373.003 78.566C372.28 78.3225 371.461 78.3077 370.812 78.3004C367.986 78.2561 365.167 78.1675 362.341 78.079L361.714 78.0569C361.043 78.0495 360.239 78.1602 359.604 78.3741C358.763 78.6619 358.291 79.0825 358.187 79.6285C358.099 80.1155 358.328 80.5877 358.874 81.0304C359.523 81.5616 360.43 81.783 361.323 81.9527C363.124 82.2921 364.953 82.4618 366.761 82.4618C368.547 82.4618 370.31 82.2995 372 81.9601C373.483 81.6723 374.28 81.1484 374.427 80.3737C374.567 79.6359 373.985 78.8906 373.003 78.566Z" fill="#5A706F" stroke="black" stroke-width="0.5"/>
<path d="M369.698 53.7523C370.038 52.3872 370.399 51.0222 370.768 49.6572C371.277 47.7536 371.808 45.7762 372.259 43.8209C374.096 35.8005 375.188 29.2337 375.682 23.1391C376.191 16.8453 376.464 9.62924 373.188 3.60106C372 1.40967 370.052 0.524256 367.964 1.24734C362.799 3.01079 361.995 9.28983 361.405 13.8792L361.257 15.0081C360.556 20.1509 360.357 25.7732 360.66 32.1851C360.911 37.505 361.56 43.0314 362.585 48.5947L362.777 49.6572C363.493 53.5752 364.231 57.6186 365.537 61.3299C365.581 61.448 365.699 61.6841 366.319 62.7171L366.474 62.9827C366.526 63.086 366.614 63.1745 366.725 63.2262C366.806 63.2631 366.887 63.2852 366.968 63.2852C367.175 63.2852 367.367 63.1745 367.463 62.9753C367.463 62.9679 367.47 62.9679 367.47 62.9605C368.414 61.0274 368.761 58.9245 369.093 56.8807C369.27 55.8404 369.447 54.7705 369.698 53.7523Z" stroke="black" stroke-width="1.5"/>
<path d="M383.26 43.6007L383.26 43.6007C384.561 42.0426 386.188 40.4291 388.005 39.3453C389.817 38.2651 391.759 37.7429 393.752 38.2466C395.857 38.7829 397.772 40.5692 398.68 42.9783C400.486 47.7775 398.012 53.1772 394.594 56.4095L394.594 56.4096C391.027 59.7842 386.357 61.656 381.675 63.5257L381.675 63.5256L381.665 63.5299L381.493 63.6016C380.904 63.8373 380.325 64.0584 379.757 64.2753C379.622 64.3268 379.487 64.3781 379.354 64.4293L379.288 64.4545C375.903 65.7489 372.814 66.9302 369.956 69.6599C371.988 60.8753 376.933 51.1746 383.26 43.6007Z" stroke="black" stroke-width="1.5"/>
<path d="M340.322 38.2471L340.323 38.247C342.312 37.7464 344.255 38.2701 346.069 39.351C347.889 40.435 349.519 42.0469 350.824 43.6013C357.151 51.1749 362.096 60.875 364.128 69.6591C361.291 66.9426 358.334 65.8099 354.824 64.4654L354.73 64.4294L354.73 64.4293C354.596 64.3781 354.462 64.3268 354.327 64.2752C353.757 64.0577 353.177 63.836 352.586 63.5996C352.586 63.5996 352.586 63.5996 352.586 63.5996L352.401 63.5258L352.401 63.5257C347.719 61.6561 343.05 59.7842 339.482 56.4096L339.482 56.4095C336.064 53.1772 333.59 47.7775 335.397 42.9783L335.397 42.9768C336.298 40.5677 338.213 38.7761 340.322 38.2471Z" stroke="black" stroke-width="1.5"/>
</svg>
