<svg width="142" height="82" viewBox="0 0 142 82" fill="none" xmlns="http://www.w3.org/2000/svg">
<path d="M126.14 0H15.5094C7.22512 0 0.509392 6.71574 0.509392 15V66.4527C0.509392 74.737 7.22511 81.4527 15.5094 81.4527H126.14C134.424 81.4527 141.14 74.7369 141.14 66.4527V15C141.14 6.71573 134.424 0 126.14 0Z" fill="#FFE660"/>
<mask id="mask0" mask-type="alpha" maskUnits="userSpaceOnUse" x="0" y="0" width="142" height="82">
<path d="M126.14 0H15.5094C7.22512 0 0.509392 6.71574 0.509392 15V66.4527C0.509392 74.737 7.22511 81.4527 15.5094 81.4527H126.14C134.424 81.4527 141.14 74.7369 141.14 66.4527V15C141.14 6.71573 134.424 0 126.14 0Z" fill="white"/>
</mask>
<g mask="url(#mask0)">
<path d="M53.2152 83.5441C49.6306 81.663 42.5322 82.9762 33.5883 74.6623C27.9628 69.4361 25.576 61.1754 23.6151 51.8765C21.4235 41.4685 24.9194 33.2345 28.3799 26.5443C33.3842 16.8461 43.1267 12.3475 53.3128 10.4931C70.5264 7.36095 80.3399 13.7761 84.5723 19.3838C89.0708 25.3375 89.1152 32.8529 95.0867 31.4244C101.236 29.9603 99.8869 22.6047 99.3102 19.4903C98.6447 15.8967 98.3519 13.9624 99.3723 13.7317C100.393 13.501 102.141 15.32 104.279 21.3003C106.391 27.2009 107.225 31.3623 110.144 30.8831C113.001 30.4129 114.137 28.1236 113.329 20.5284C112.469 12.4185 107.89 4.07796 110.881 3.12855C113.871 2.17914 117.979 6.52689 123.178 15.2313C128.378 23.9445 133.019 41.4863 128.937 54.9377C126.382 63.3759 121.12 70.9179 114.74 74.538C108.476 78.0961 100.81 81.9292 96.0006 83.3932C85.495 86.5964 88.2811 89.4357 90.2687 94.6086C92.2473 99.7727 95.0246 111.689 85.5483 117.066C76.072 122.443 59.5505 124.954 58.681 108.291C57.8114 91.6273 61.7244 88.0249 53.2152 83.5441Z" fill="#45BDD1"/>
<path d="M19.2496 34.2104C14.192 36.0116 3.43802 35.5414 3.02986 32.9682C2.55959 30.0135 7.7059 27.6711 14.4937 26.979C20.8379 26.3312 25.9309 29.0286 26.5432 28.0082C26.9602 27.3073 22.7633 22.5691 19.8441 17.5736C17.1201 12.9065 17.2177 4.02466 19.5424 3.31482C22.2398 2.48964 26.1528 8.34578 27.5103 13.572C29.1873 20.0315 29.2938 28.1857 28.7437 29.0553C27.9628 30.3063 24.2362 32.4359 19.2496 34.2104Z" fill="#45BDD1"/>
<path d="M95.0867 59.4718C95.0867 59.4718 101.75 66.6411 111.786 63.7042C120.481 61.1576 125.902 52.0895 125.902 52.0895C125.902 52.0895 122.353 70.0217 108.094 70.1726C93.8445 70.3234 95.0867 59.4718 95.0867 59.4718Z" fill="white"/>
<path d="M89.1596 70.2967C89.7807 73.0207 88.0771 75.7269 85.362 76.3481C82.638 76.9692 79.9317 75.2656 79.3106 72.5504C78.6895 69.8353 80.3931 67.1202 83.1082 66.4991C85.8322 65.878 88.5385 67.5727 89.1596 70.2967Z" fill="#ED6D99"/>
<path d="M123.17 15.2312C117.97 6.51797 113.862 2.1791 110.872 3.1285C107.881 4.07791 112.46 12.4274 113.321 20.5284C114.128 28.1147 112.992 30.4128 110.135 30.8831C107.216 31.3622 106.373 27.2008 104.27 21.3003C102.132 15.3199 100.384 13.501 99.3635 13.7317C98.3431 13.9624 98.6359 15.9056 99.3014 19.4902C99.8781 22.6046 101.218 29.9603 95.0778 31.4243C94.7318 31.5042 94.4035 31.5574 94.0929 31.584C94.7939 33.5716 95.7788 35.6213 97.4558 36.5085C104.865 40.4393 120.667 36.5973 128.041 26.9701C126.71 22.3562 124.98 18.2658 123.17 15.2312Z" fill="#0099BE"/>
<path d="M66.5602 9.94293C62.7537 13.8027 59.4352 17.9641 60.8549 19.6056C62.5141 21.531 68.5477 16.3936 73.49 11.5489C71.4403 10.8125 69.1333 10.2535 66.5602 9.94293Z" fill="#AAD9D7"/>
<path d="M65.1582 9.80102C62.7359 9.60581 60.1006 9.63243 57.2258 9.93411C55.8061 11.9838 54.8035 13.9713 55.6997 14.5924C56.862 15.3821 61.4227 12.4718 65.1582 9.80102Z" fill="#AAD9D7"/>
<path d="M79.3195 14.4859C77.9264 13.5454 76.3382 12.6847 74.537 11.9482C71.325 16.4734 68.3082 21.5665 69.852 22.8975C71.4492 24.2905 75.7348 19.3128 79.3195 14.4859Z" fill="#AAD9D7"/>
<path d="M84.5634 19.3838C83.5696 18.0706 82.2653 16.7042 80.6238 15.4354C78.512 20.422 76.7641 25.7812 78.5653 26.4999C80.1713 27.1388 82.8687 24.0155 85.3176 20.4663C85.0869 20.1025 84.8384 19.7388 84.5634 19.3838Z" fill="#AAD9D7"/>
<path d="M88.6627 26.9612C87.9262 25.4262 87.1898 23.6694 86.2049 21.9125C84.9449 25.3197 84.1286 28.4519 84.9715 29.2682C85.6547 29.9248 87.0744 28.7802 88.6627 26.9612Z" fill="#AAD9D7"/>
<path d="M71.9727 48.354C75.4952 46.4108 80.1535 47.1828 82.6823 48.2919C81.1917 46.6149 79.0089 45.2662 76.7818 44.7161C76.7996 43.8998 76.6931 42.4712 75.7259 42.2228C74.7677 41.9743 75.1137 43.5271 75.4065 44.4765C75.1048 44.4499 74.812 44.4321 74.5192 44.441C74.3063 44.441 74.1022 44.4676 73.8981 44.4854C73.5343 43.7312 72.86 42.7463 71.9106 42.9237C70.9966 43.0923 71.5202 44.0861 72.0791 44.8492C71.6355 44.9911 71.2096 45.1597 70.8103 45.3727C70.1892 44.6451 69.3197 43.8465 68.5743 44.0506C67.758 44.2724 68.5832 45.4791 69.3285 46.3664C69.0002 46.6415 68.7074 46.9343 68.4235 47.2537C67.6515 46.5971 66.569 45.9494 65.7794 46.5705C64.8832 47.2715 66.2674 48.212 67.341 48.771C67.1192 49.1614 66.924 49.5696 66.7554 49.9955C66.0012 49.3832 64.83 48.7089 64.0935 49.5607C63.0997 50.6964 65.4865 51.7434 66.2141 52.0274C66.1077 52.7017 66.0722 53.3849 66.1165 54.0593C66.1964 55.3015 66.64 56.455 67.3321 57.4754C67.5451 54.7425 68.0331 50.519 71.9727 48.354Z" fill="#1D1511"/>
</g>
</svg>
