<svg width="141" height="58" viewBox="0 0 141 58" fill="none" xmlns="http://www.w3.org/2000/svg">
<path d="M16.3763 0.563232C8.28107 0.563232 1.64623 6.9866 1.38411 15.0775L0.50167 42.3166C0.227268 50.7868 7.01918 57.8023 15.4938 57.8023H125.722C133.971 57.8023 140.671 51.1428 140.722 42.8947L140.89 15.6556C140.941 7.33537 134.211 0.563232 125.89 0.563232H16.3763Z" fill="#FFE660"/>
<mask id="mask0" mask-type="alpha" maskUnits="userSpaceOnUse" x="0" y="0" width="141" height="58">
<path d="M16.3763 0.563232C8.28107 0.563232 1.64623 6.9866 1.38411 15.0775L0.50167 42.3166C0.227268 50.7868 7.01918 57.8023 15.4938 57.8023H125.722C133.971 57.8023 140.671 51.1428 140.722 42.8947L140.89 15.6556C140.941 7.33537 134.211 0.563232 125.89 0.563232H16.3763Z" fill="white"/>
</mask>
<g mask="url(#mask0)">
<path d="M57.1122 -9.15484C54.5922 -13.0948 36.6022 -19.0648 33.2922 -33.0748C28.8522 -51.8548 30.1122 -71.1348 43.1122 -73.5348C56.1122 -75.9448 55.5122 -63.3548 61.0422 -62.4948C66.5722 -61.6448 80.7822 -63.0249 84.8422 -65.2949C88.9122 -67.5749 87.9322 -81.3048 101.602 -80.9948C119.492 -80.5848 120.292 -43.6949 113.242 -31.0149C106.182 -18.3349 92.4022 -16.3649 93.1222 -9.70486C93.8422 -3.04486 95.2422 13.2652 87.4822 16.0552C79.7222 18.8352 62.6622 20.0452 58.5522 11.1352C55.7322 5.04517 58.7822 -6.54484 57.1122 -9.15484Z" fill="#00ACA1"/>
<path d="M60.9322 -2.51487C60.9322 -2.51487 55.8222 -0.254862 50.8122 -1.81486C45.8022 -3.37486 43.9322 -8.20485 43.0722 -11.9649C42.2122 -15.7249 40.8222 -17.1249 38.8222 -15.7949C36.3722 -14.1749 42.3322 -8.13488 40.5922 -6.95488C39.0622 -5.91488 34.2922 -15.9249 31.6322 -11.5449C28.9522 -7.12487 38.4622 -5.84485 38.2522 -4.67485C37.9622 -3.03485 29.4122 -6.37485 30.0322 -1.99485C30.5922 1.93515 37.8022 -1.05487 40.8122 -1.19487C43.2622 -1.30487 46.6422 2.00511 53.1422 2.34511C58.0922 2.60511 61.8422 0.385151 61.8422 0.385151L60.9322 -2.51487Z" fill="#00ACA1"/>
<path d="M64.0322 10.2952C64.0322 10.2952 54.0622 15.0051 55.1322 19.0251C56.4022 23.7851 59.3222 26.3052 59.0322 28.8952C58.8022 30.9352 50.6622 40.2652 48.6522 38.0152C46.2322 35.3152 53.1522 33.0152 52.3922 31.5952C51.6422 30.1752 44.4122 37.3651 43.2122 34.5251C41.2022 29.7551 52.6222 30.5552 52.1922 28.7252C51.7622 26.8952 42.2522 32.6852 42.2622 27.6952C42.2622 22.5352 54.3922 27.5852 52.9322 24.6052C51.2622 21.2052 50.3822 17.8852 51.1122 15.6652C52.2222 12.3052 59.1422 8.3252 59.1422 8.3252L64.0322 10.2952Z" fill="#00ACA1"/>
<path d="M87.9122 9.53516C87.9122 9.53516 98.6122 12.2152 98.3422 16.3652C98.0222 21.2752 95.6522 24.3152 96.4422 26.8052C97.0622 28.7552 106.862 36.3252 108.402 33.7352C110.252 30.6152 103.022 29.7052 103.482 28.1652C103.942 26.6252 112.432 32.2752 113.062 29.2552C114.102 24.1852 103.052 27.1852 103.122 25.3052C103.192 23.4252 113.642 27.2652 112.672 22.3652C111.662 17.2952 100.742 24.6152 101.602 21.4152C102.582 17.7552 102.792 14.3252 101.642 12.2852C99.9022 9.20516 92.3422 6.65515 92.3422 6.65515L87.9122 9.53516Z" fill="#00ACA1"/>
<path d="M67.6122 4.57513C67.7322 6.27513 66.4522 7.74511 64.7522 7.86511C63.0522 7.98511 61.5822 6.70513 61.4622 5.00513C61.3422 3.30513 62.6222 1.83514 64.3222 1.70514C66.0122 1.59514 67.4922 2.87513 67.6122 4.57513Z" fill="#37C1D1"/>
<path d="M83.5322 8.1551C83.6322 9.5951 82.5522 10.8451 81.1122 10.9451C79.6722 11.0451 78.4222 9.9651 78.3222 8.5251C78.2222 7.0851 79.3022 5.83512 80.7422 5.73512C82.1722 5.63512 83.4222 6.7151 83.5322 8.1551Z" fill="#37C1D1"/>
</g>
</svg>
