<svg width="214" height="25" viewBox="0 0 214 25" fill="none" xmlns="http://www.w3.org/2000/svg">
<path d="M211.281 10.7473C212.034 10.3784 212.779 9.99471 213.502 9.61103C203.387 9.72908 193.256 10.1349 183.361 10.5407C164.325 11.3154 144.639 12.1197 125.33 10.7842C112.011 9.86189 98.5679 7.9066 85.567 6.01033C77.5614 4.84453 69.2754 3.63445 61.1 2.68263C44.0927 0.697823 22.09 -0.932821 0.330933 3.46475C0.928589 3.73037 1.52624 3.996 2.11652 4.25425C23.2116 0.277254 44.4616 1.85624 60.9672 3.7894C69.1278 4.74123 77.3991 5.94392 85.3973 7.10971C98.4203 9.00598 111.886 10.9687 125.248 11.891C132.782 12.4148 140.36 12.6067 147.945 12.6067C159.854 12.6067 171.748 12.1197 183.406 11.6475C192.562 11.2712 201.926 10.8949 211.281 10.7473Z" fill="#A7D9D3"/>
<path d="M158.208 16.8714C149.546 17.6904 140.596 18.5389 131.86 18.6348C114.055 18.8414 96.015 15.8753 78.5649 13.0124C56.7467 9.44127 34.235 5.7594 12.0184 8.23119C12.8153 8.53371 13.6196 8.82147 14.4164 9.10923C35.7476 7.13918 57.396 10.6661 78.3952 14.1044C95.3435 16.8787 112.845 19.749 130.207 19.749C130.76 19.749 131.321 19.749 131.882 19.7416C140.662 19.6457 149.642 18.7971 158.326 17.9781C170.729 16.805 183.42 15.6096 195.824 16.6057C196.768 16.3253 197.712 16.0597 198.65 15.7646C185.272 14.3184 171.578 15.6023 158.208 16.8714Z" fill="#A7D9D3"/>
<path d="M165.196 20.9369C159.322 20.9738 153.39 21.5346 147.65 22.088C143.215 22.5085 138.633 22.9513 134.117 23.1357C118.01 23.8072 101.674 21.3575 85.877 18.989C68.7147 16.4139 50.999 13.7651 33.4751 15.0932C34.5892 15.4031 35.7108 15.6982 36.8323 16.0007C53.1756 15.2112 69.6886 17.683 85.7147 20.0884C101.564 22.4643 117.944 24.9139 134.162 24.2425C138.707 24.0507 143.304 23.6153 147.753 23.1874C153.471 22.6414 159.381 22.0806 165.203 22.0437C166.959 22.0363 168.656 22.0954 170.309 22.1913C171.733 21.9625 173.164 21.7191 174.603 21.4608C171.63 21.114 168.494 20.9296 165.196 20.9369Z" fill="#A7D9D3"/>
</svg>
