<svg width="142" height="82" viewBox="0 0 142 82" fill="none" xmlns="http://www.w3.org/2000/svg">
<path d="M126.14 0H15.5094C7.22513 0 0.509399 6.71574 0.509399 15V66.4527C0.509399 74.737 7.22512 81.4527 15.5094 81.4527H126.14C134.424 81.4527 141.14 74.7369 141.14 66.4527V15C141.14 6.71573 134.424 0 126.14 0Z" fill="#FFE660"/>
<mask id="mask0" mask-type="alpha" maskUnits="userSpaceOnUse" x="0" y="0" width="142" height="82">
<path d="M126.14 0H15.5094C7.22513 0 0.509399 6.71574 0.509399 15V66.4527C0.509399 74.737 7.22512 81.4527 15.5094 81.4527H126.14C134.424 81.4527 141.14 74.7369 141.14 66.4527V15C141.14 6.71573 134.424 0 126.14 0Z" fill="white"/>
</mask>
<g mask="url(#mask0)">
<path d="M54.1122 77.8452C51.5922 73.9052 33.6022 67.9352 30.2922 53.9252C25.8522 35.1452 27.1122 15.8652 40.1122 13.4652C53.1122 11.0552 52.5122 23.6452 58.0422 24.5052C63.5722 25.3552 77.7822 23.9751 81.8422 21.7051C85.9122 19.4251 84.9322 5.69517 98.6022 6.00517C116.492 6.41517 117.292 43.3051 110.242 55.9851C103.182 68.6651 89.4022 70.6351 90.1222 77.2951C90.8422 83.9551 92.2422 100.265 84.4822 103.055C76.7222 105.835 59.6622 107.045 55.5522 98.1352C52.7322 92.0452 55.7822 80.4552 54.1122 77.8452Z" fill="#00ACA1"/>
<path d="M57.7521 48.1351C57.7521 48.1351 61.7421 57.4551 73.0121 56.0751C84.2921 54.6951 86.8121 46.0851 86.8121 46.0851C86.8121 46.0851 86.0021 62.4151 72.5321 63.1651C59.0621 63.9251 57.7521 48.1351 57.7521 48.1351Z" fill="white"/>
<path d="M88.7622 82.2451C88.7622 82.2451 95.3822 83.5651 99.9222 79.9951C104.452 76.4251 100.982 66.9451 105.272 66.7151C109.852 66.4651 103.822 75.1951 106.052 75.3751C108.282 75.5551 109.832 66.7551 113.362 69.8951C118.852 74.7851 106.962 77.0151 106.922 78.8951C106.882 80.7751 115.862 76.2051 115.522 81.0251C115.172 85.8351 106.252 81.4651 103.542 82.5751C100.862 83.6651 97.9822 85.0051 95.4922 85.5051C93.2622 85.9551 88.2822 85.8551 88.2822 85.8551L88.7622 82.2451Z" fill="#00ACA1"/>
<path d="M44.3122 50.8652C43.7422 53.8252 41.2521 55.8252 38.7621 55.3452C36.2621 54.8652 34.7021 52.0752 35.2721 49.1152C35.8421 46.1552 38.3222 44.1551 40.8222 44.6351C43.3222 45.1251 44.8821 47.9052 44.3122 50.8652Z" fill="#F4793B"/>
<path d="M106.712 47.2551C106.102 50.4151 103.432 52.5651 100.762 52.0551C98.0821 51.5351 96.4021 48.5551 97.0121 45.3851C97.6221 42.2151 100.292 40.0751 102.972 40.5851C105.642 41.1051 107.322 44.0851 106.712 47.2551Z" fill="#F4793B"/>
<path d="M57.9321 84.4851C57.9321 84.4851 52.8222 86.7451 47.8122 85.1851C42.8022 83.6251 40.9322 78.7951 40.0722 75.0351C39.2122 71.2751 37.8222 69.8751 35.8222 71.2051C33.3722 72.8251 39.3321 78.8651 37.5921 80.0451C36.0621 81.0851 31.2922 71.0751 28.6321 75.4551C25.9521 79.8751 35.4622 81.1552 35.2522 82.3252C34.9622 83.9652 26.4121 80.6251 27.0321 85.0051C27.5921 88.9351 34.8021 85.9451 37.8122 85.8051C40.2621 85.6951 43.6422 89.0051 50.1422 89.3451C55.0922 89.6051 58.8421 87.3852 58.8421 87.3852L57.9321 84.4851Z" fill="#00ACA1"/>
<path d="M53.0722 26.2351C53.4022 31.4051 48.9222 35.9051 43.0722 36.2851C37.2122 36.6551 32.1922 32.7651 31.8622 27.5951C31.5322 22.4251 36.0122 17.9251 41.8722 17.5451C47.7222 17.1651 52.7422 21.0651 53.0722 26.2351Z" fill="#120708"/>
<path d="M53.7822 28.4851C54.0722 33.0651 49.9921 37.0451 44.6721 37.3851C39.3421 37.7251 34.7821 34.2951 34.4921 29.7151C34.2021 25.1351 38.2821 21.1551 43.6121 20.8151C48.9321 20.4751 53.4921 23.9151 53.7822 28.4851Z" fill="white"/>
<path d="M49.3922 22.0551C44.9322 22.5751 41.6122 26.5251 41.9022 31.0951C42.0622 33.6551 43.3422 35.8751 45.2122 37.3251C50.2622 36.7551 54.0722 32.8951 53.7822 28.4851C53.6022 25.7351 51.8822 23.4051 49.3922 22.0551Z" fill="#F8951D"/>
<path d="M52.0021 30.1951C52.0921 31.6551 50.9921 32.9151 49.5421 33.0051C48.0921 33.0951 46.8421 31.9951 46.7521 30.5251C46.6621 29.0651 47.7521 27.8051 49.2021 27.7151C50.6621 27.6251 51.9121 28.7351 52.0021 30.1951Z" fill="#120708"/>
<path d="M107.772 18.7351C108.082 23.6051 103.862 27.8451 98.3521 28.1951C92.8321 28.5551 88.1121 24.8851 87.8021 20.0151C87.4921 15.1451 91.7122 10.9051 97.2222 10.5551C102.732 10.1951 107.452 13.8651 107.772 18.7351Z" fill="#120708"/>
<path d="M108.442 20.1552C108.722 24.4552 104.882 28.2152 99.8522 28.5352C94.8322 28.8552 90.5422 25.6252 90.2622 21.3152C89.9822 17.0052 93.8322 13.2552 98.8522 12.9352C103.882 12.6152 108.172 15.8452 108.442 20.1552Z" fill="white"/>
<path d="M104.312 14.0952C100.122 14.5852 96.9921 18.3051 97.2621 22.6051C97.4221 25.0151 98.6121 27.1051 100.372 28.4751C105.142 27.9351 108.712 24.3051 108.452 20.1451C108.282 17.5651 106.662 15.3652 104.312 14.0952Z" fill="#F8951D"/>
<path d="M106.772 21.7651C106.862 23.1451 105.832 24.3251 104.462 24.4151C103.102 24.4951 101.922 23.4551 101.832 22.0851C101.742 20.7051 102.782 19.5151 104.142 19.4351C105.502 19.3451 106.682 20.3851 106.772 21.7651Z" fill="#120708"/>
<path d="M72.2621 31.4051C72.4021 33.3351 70.9421 35.0051 69.0221 35.1451C67.0921 35.2851 65.4221 33.8251 65.2821 31.9051C65.1421 29.9751 66.6021 28.3051 68.5321 28.1651C70.4521 28.0251 72.1221 29.4751 72.2621 31.4051Z" fill="#37C1D1"/>
<path d="M91.4421 35.3351C91.5521 36.9351 90.3521 38.3251 88.7521 38.4351C87.1521 38.5451 85.7621 37.3451 85.6521 35.7451C85.5421 34.1451 86.7421 32.7551 88.3421 32.6451C89.9321 32.5251 91.3221 33.7351 91.4421 35.3351Z" fill="#37C1D1"/>
<path d="M54.2021 44.0851C54.3321 45.8951 52.9621 47.4651 51.1621 47.5951C49.3521 47.7251 47.7821 46.3651 47.6521 44.5551C47.5221 42.7451 48.8921 41.1751 50.7021 41.0451C52.5021 40.9151 54.0721 42.2751 54.2021 44.0851Z" fill="#37C1D1"/>
<path d="M52.1421 61.9552C52.2821 63.9152 50.8021 65.6152 48.8421 65.7552C46.8821 65.8952 45.1721 64.4152 45.0421 62.4552C44.9021 60.4952 46.3821 58.7952 48.3421 58.6552C50.3021 58.5152 52.0021 59.9952 52.1421 61.9552Z" fill="#37C1D1"/>
<path d="M75.0021 78.0651C75.1321 79.9651 73.7121 81.6051 71.8121 81.7451C69.9121 81.8751 68.2721 80.4551 68.1321 78.5551C68.0021 76.6651 69.4321 75.0151 71.3221 74.8751C73.2221 74.7351 74.8721 76.1751 75.0021 78.0651Z" fill="#37C1D1"/>
<path d="M94.3921 61.0052C94.5121 62.6252 93.2821 64.0351 91.6621 64.1451C90.0421 64.2651 88.6321 63.0351 88.5121 61.4151C88.4021 59.7851 89.6221 58.3751 91.2421 58.2651C92.8621 58.1551 94.2721 59.3852 94.3921 61.0052Z" fill="#37C1D1"/>
<path d="M35.4121 39.9651C35.5221 41.4851 34.3821 42.8051 32.8621 42.9051C31.3421 43.0151 30.0221 41.8651 29.9221 40.3451C29.8121 38.8251 30.9621 37.5051 32.4721 37.3951C33.9921 37.2951 35.3121 38.4451 35.4121 39.9651Z" fill="#37C1D1"/>
<path d="M110.272 32.7351C110.372 34.2351 109.242 35.5451 107.742 35.6451C106.242 35.7551 104.932 34.6151 104.832 33.1151C104.722 31.6151 105.862 30.3051 107.362 30.1951C108.862 30.1051 110.172 31.2351 110.272 32.7351Z" fill="#37C1D1"/>
<path d="M70.2522 46.1551C70.3422 47.4051 69.4022 48.4951 68.1422 48.5851C66.8922 48.6751 65.8021 47.7351 65.7221 46.4751C65.6321 45.2251 66.5722 44.1451 67.8222 44.0551C69.0722 43.9551 70.1622 44.9051 70.2522 46.1551Z" fill="#37C1D1"/>
<path d="M62.7221 71.1551C62.8221 72.5051 61.7921 73.6851 60.4421 73.7851C59.0821 73.8851 57.9121 72.8551 57.8121 71.5051C57.7121 70.1451 58.7321 68.9751 60.0921 68.8751C61.4521 68.7751 62.6221 69.8051 62.7221 71.1551Z" fill="#37C1D1"/>
<path d="M85.3321 69.0851C85.4221 70.2851 84.5121 71.3251 83.3221 71.4051C82.1221 71.4851 81.0821 70.5851 80.9921 69.3851C80.9121 68.1851 81.8121 67.1451 83.0121 67.0651C84.2121 66.9851 85.2521 67.8851 85.3321 69.0851Z" fill="#37C1D1"/>
</g>
</svg>
