<svg width="142" height="82" viewBox="0 0 142 82" fill="none" xmlns="http://www.w3.org/2000/svg">
<path d="M126.14 0H15.5094C7.22513 0 0.509399 6.71574 0.509399 15V66.4527C0.509399 74.737 7.22512 81.4527 15.5094 81.4527H126.14C134.424 81.4527 141.14 74.7369 141.14 66.4527V15C141.14 6.71573 134.424 0 126.14 0Z" fill="#FFE660"/>
<mask id="mask0" mask-type="alpha" maskUnits="userSpaceOnUse" x="0" y="0" width="142" height="82">
<path d="M126.14 0H15.5094C7.22513 0 0.509399 6.71574 0.509399 15V66.4527C0.509399 74.737 7.22512 81.4527 15.5094 81.4527H126.14C134.424 81.4527 141.14 74.7369 141.14 66.4527V15C141.14 6.71573 134.424 0 126.14 0Z" fill="white"/>
</mask>
<g mask="url(#mask0)">
<path d="M124.518 42.959C123.536 41.2733 114.846 42.4121 114.456 43.9029C114.089 45.3114 120.892 58.1972 109.647 61.1789C102.964 62.947 99.5178 49.724 98.484 44.2401C98.2442 42.9815 97.9745 41.9251 97.6523 41.0111C96.4237 34.7105 93.9739 28.2452 88.7971 24.4468C82.3167 19.6896 77.2523 16.9551 71.3937 15.8014C63.7971 14.3105 52.8217 13.816 42.8951 21.083C34.362 27.3237 31.9197 37.7672 31.0207 44.0827C30.0542 50.9002 30.219 59.8604 33.0734 66.8127C35.5906 72.9485 43.6368 79.7285 46.0491 81.3542C48.7836 83.2047 53.2337 85.5346 54.8969 87.962C56.9347 90.9287 53.8556 100.406 55.1217 104.242C56.3878 108.077 60.7854 109.711 65.9847 110.422C71.184 111.134 74.7276 110.385 78.0914 108.115C81.4552 105.845 81.9122 101.545 82.092 97.8211C82.2718 94.0977 82.077 91.9476 81.7324 86.4037C81.3877 80.8598 89.8235 76.11 93.2697 71.7798C94.7905 69.8694 96.1765 67.8391 97.2178 65.5541C102.852 69.285 109.429 68.6407 113.572 66.8052C122.158 63.0219 125.432 44.5322 124.518 42.959Z" fill="#F3A4B7"/>
<path d="M82.0022 61.8307C82.0022 61.8307 82.7439 67.0524 86.7594 67.2322C90.775 67.4045 93.8916 63.2092 93.8916 63.2092C93.8916 63.2092 90.0933 73.353 85.381 72.1693C80.6687 70.9856 82.0022 61.8307 82.0022 61.8307Z" fill="white"/>
<path d="M48.0045 36.7109C49.3905 37.9246 49.825 41.4157 50.1022 45.8733C50.3794 50.3309 51.3833 66.6854 51.6905 71.645C51.9976 76.6045 20.0228 87.093 16.4792 60.3849C13.5125 38.022 25.1322 33.1823 29.0729 32.2983C36.6545 30.6051 46.2665 35.1826 48.0045 36.7109Z" fill="#C42C7C"/>
<path d="M70.6297 40.5691C70.6522 39.8649 70.5623 38.6362 69.7307 38.4115C68.9066 38.1942 69.1988 39.5277 69.446 40.3518C69.1913 40.3294 68.929 40.3144 68.6818 40.3144C68.502 40.3144 68.3222 40.3369 68.1499 40.3518C67.8353 39.7001 67.2659 38.846 66.4418 38.9958C65.6552 39.1382 66.1047 39.9997 66.5766 40.6515C66.1946 40.7714 65.8274 40.9137 65.4828 41.0935C64.9509 40.4642 64.2093 39.775 63.5575 39.9473C62.8533 40.1346 63.5575 41.1759 64.1943 41.9476C63.9096 42.1798 63.6549 42.4345 63.4151 42.7117C62.7484 42.1424 61.8194 41.5805 61.1376 42.1124C60.366 42.7192 61.5497 43.5283 62.4712 44.0153C62.2764 44.3524 62.1041 44.7045 61.9617 45.0642C61.31 44.5322 60.3135 43.9479 59.6693 44.6746C58.8077 45.6485 60.8604 46.555 61.4823 46.8022C61.3923 47.3791 61.3549 47.971 61.3924 48.5553C61.6396 52.6158 66.2695 55.635 70.4274 54.9458C75.1472 54.1591 76.5182 51.9865 77.2299 47.9784C77.7843 44.8469 74.2557 41.4906 70.6297 40.5691Z" fill="#1D1511"/>
<path d="M77.612 47.9035C77.8367 51.5745 74.885 54.7435 71.0192 54.9832C67.1535 55.2229 63.8272 52.4435 63.6024 48.7725C63.3777 45.1016 66.3294 41.9326 70.1952 41.6928C74.0684 41.4531 77.3872 44.2325 77.612 47.9035Z" fill="white"/>
<path d="M74.4055 42.7192C71.1691 43.1087 67.9326 45.9406 68.1574 49.6041C68.2847 51.6568 70.0528 53.7545 71.4088 54.9382C75.0798 54.5112 77.8292 51.4471 77.612 47.9035C77.4771 45.7009 76.2185 43.8205 74.4055 42.7192Z" fill="#424E90"/>
<path d="M76.6231 47.8136C76.698 48.9823 75.9038 49.9862 74.8475 50.0536C73.7987 50.1211 72.8847 49.222 72.8098 48.0458C72.7348 46.8771 73.529 45.8732 74.5853 45.8058C75.6416 45.7459 76.5557 46.6449 76.6231 47.8136Z" fill="#1D1511"/>
<path d="M75.9938 62.6923C76.1361 64.9773 74.398 66.9401 72.1205 67.075C69.8356 67.2173 67.8727 65.4792 67.7378 63.2017C67.5955 60.9167 69.3336 58.9539 71.6111 58.8191C73.8886 58.6692 75.8514 60.4073 75.9938 62.6923Z" fill="#EE7330"/>
<path d="M116.097 51.6196C117.798 51.3349 119.686 50.6682 119.731 49.1024C119.783 47.207 117.109 47.192 115.296 47.3943C115.633 48.6454 115.962 50.1138 116.097 51.6196Z" fill="#C42C7C"/>
<path d="M98.4765 44.2401C98.2368 42.9815 97.9671 41.9252 97.6449 41.0112C97.6075 40.8239 97.57 40.6366 97.5325 40.4493C93.7642 42.0975 87.089 45.3414 88.5199 47.1394C89.861 48.8251 95.2925 46.5176 98.6114 44.8844C98.5589 44.6597 98.514 44.4424 98.4765 44.2401Z" fill="#C42C7C"/>
<path d="M109.639 61.179C108.853 61.3888 108.118 61.3813 107.422 61.2165C107.759 63.0669 108.388 64.835 109.534 64.5054C110.508 64.2207 110.696 62.6249 110.598 60.8868C110.291 60.9917 109.976 61.0891 109.639 61.179Z" fill="#C42C7C"/>
<path d="M111.999 60.2726C112.973 61.8084 114.067 62.9621 114.831 62.1005C115.655 61.1641 115.273 59.5159 114.659 58.0625C114.029 58.9241 113.16 59.6732 111.999 60.2726Z" fill="#C42C7C"/>
<path d="M102.657 56.7964C101.84 55.373 101.144 53.7323 100.559 52.0766C98.1693 54.1893 95.5098 57.0886 96.9857 58.542C98.4091 59.9429 100.844 58.3847 102.657 56.7964Z" fill="#C42C7C"/>
<path d="M118.854 55.8973C119.169 54.384 117.663 53.3426 116.15 52.6909C116.172 54.0094 115.992 55.328 115.505 56.5416C116.936 57.141 118.539 57.4331 118.854 55.8973Z" fill="#C42C7C"/>
<path d="M103.211 57.6954C102.23 59.7332 101.413 62.1006 102.44 62.8722C103.458 63.6364 104.695 62.0332 105.631 60.3625C104.74 59.7182 103.938 58.7892 103.211 57.6954Z" fill="#C42C7C"/>
<path d="M100.372 51.5372C99.6527 49.417 99.1133 47.3044 98.7537 45.5963C96.0042 48.0161 92.086 51.8519 93.0375 53.3427C93.899 54.6912 97.5775 53.058 100.372 51.5372Z" fill="#C42C7C"/>
<path d="M51.2035 63.6887C50.7915 57.0585 50.2895 48.84 50.1022 45.8733C50.1022 45.8209 50.0947 45.7684 50.0947 45.7235C45.0753 43.6408 26.4657 37.048 26.0837 53.3576C25.7091 69.2326 43.0899 68.7007 51.2035 63.6887Z" fill="#ED6D99"/>
<path d="M63.8046 12.3776C61.662 12.4526 48.5589 0.368354 44.1687 4.781C39.7785 9.20114 46.9332 16.0111 46.9332 16.0111C46.9332 16.0111 42.1235 22.012 47.0231 25.8553C51.9227 29.6986 62.4037 16.7978 63.5574 16.5431C66.1945 15.9587 82.8787 27.2713 85.6581 21.9221C88.4375 16.5655 82.4741 12.2728 82.4741 12.2728C82.4741 12.2728 86.1226 6.39922 83.448 2.88559C80.0617 -1.5795 66.3518 12.2877 63.8046 12.3776Z" fill="#E9512D"/>
<path d="M63.5125 13.4789C63.5125 13.4789 50.4618 8.74415 50.4244 14.0483C50.3644 22.8586 61.662 14.5503 63.3252 14.333C65.1157 14.1007 78.8481 19.375 77.9041 12.5874C77.0426 6.38424 65.4304 13.3591 63.5125 13.4789Z" fill="#D82F27"/>
</g>
</svg>
