<svg width="141" height="58" viewBox="0 0 141 58" fill="none" xmlns="http://www.w3.org/2000/svg">
<path d="M16.3763 0.452637C8.28108 0.452637 1.64624 6.876 1.38412 14.9669L0.501677 42.2061C0.227276 50.6762 7.01919 57.6917 15.4938 57.6917H125.722C133.971 57.6917 140.671 51.0322 140.722 42.7841L140.89 15.545C140.941 7.22478 134.211 0.452637 125.89 0.452637H16.3763Z" fill="#FFE660"/>
<mask id="mask0" mask-type="alpha" maskUnits="userSpaceOnUse" x="0" y="0" width="141" height="58">
<path d="M16.3763 0.452637C8.28108 0.452637 1.64624 6.876 1.38412 14.967L0.501677 42.2061C0.227276 50.6762 7.01919 57.6917 15.4938 57.6917H125.722C133.971 57.6917 140.671 51.0322 140.722 42.7841L140.89 15.545C140.941 7.22478 134.211 0.452637 125.89 0.452637H16.3763Z" fill="white"/>
</mask>
<g mask="url(#mask0)">
<path d="M117.518 -36.041C116.536 -37.7267 107.846 -36.5879 107.456 -35.0971C107.089 -33.6886 113.892 -20.8028 102.647 -17.8211C95.964 -16.053 92.5179 -29.276 91.484 -34.7599C91.2442 -36.0185 90.9745 -37.0749 90.6524 -37.9889C89.4237 -44.2895 86.974 -50.7548 81.7971 -54.5532C75.3168 -59.3104 70.2523 -62.0449 64.3938 -63.1986C56.7971 -64.6895 45.8217 -65.184 35.8951 -57.917C27.362 -51.6763 24.9197 -41.2328 24.0207 -34.9173C23.0543 -28.0998 23.2191 -19.1396 26.0734 -12.1873C28.5907 -6.05152 36.6368 0.728523 39.0492 2.35423C41.7837 4.2047 46.2338 6.53464 47.8969 8.96197C49.9347 11.9287 46.8556 21.4058 48.1217 25.2415C49.3878 29.0773 53.7855 30.7105 58.9847 31.4222C64.184 32.134 67.7276 31.3848 71.0914 29.1148C74.4552 26.8448 74.9122 22.5445 75.092 18.8211C75.2718 15.0977 75.077 12.9476 74.7324 7.40367C74.3878 1.85977 82.8235 -2.89 86.2697 -7.22023C87.7905 -9.13063 89.1765 -11.1609 90.2179 -13.4459C95.8517 -9.71498 102.429 -10.3593 106.572 -12.1948C115.158 -15.9781 118.432 -34.4678 117.518 -36.041Z" fill="#F3A4B7"/>
<path d="M54.0327 25.0093C54.0327 25.0093 49.7699 30.6132 47.0054 32.4412C44.241 34.2617 42.6153 35.2506 42.6153 35.2506C42.6153 35.2506 41.0495 36.1496 42.0983 37.7004C43.6641 40.0078 44.3383 40.772 45.9041 39.3486C47.4699 37.9251 49.6725 36.3369 51.493 33.6923C53.3135 31.0477 56.018 26.3429 56.018 26.3429L54.0327 25.0093Z" fill="#F3A4B7"/>
<path d="M70.7917 26.2754C70.7917 26.2754 75.5115 31.7593 76.7777 34.9059C78.0438 38.0524 78.703 39.8879 78.703 39.8879C78.703 39.8879 79.2874 41.641 81.033 40.9517C83.6326 39.9253 84.5241 39.4234 83.4228 37.5579C82.3216 35.6925 81.1753 33.1528 78.9128 30.7479C76.6503 28.3506 72.5148 24.6197 72.5148 24.6197L70.7917 26.2754Z" fill="#F3A4B7"/>
<path d="M69.1511 14.2887C69.1511 14.2887 75.8412 16.6111 79.7744 14.7906C83.7075 12.9701 86.045 8.45258 86.5244 7.42621C87.0039 6.39235 86.6143 5.75555 85.5355 5.13373C84.4492 4.51192 82.7036 3.3582 81.9544 4.72169C81.2053 6.08519 80.1415 9.59884 78.4184 11.0747C75.564 13.517 69.668 11.4493 69.668 11.4493L69.1511 14.2887Z" fill="#F3A4B7"/>
<path d="M41.0045 -42.2891C42.3905 -41.0754 42.825 -37.5843 43.1022 -33.1267C43.3794 -28.6691 44.3833 -12.3146 44.6905 -7.35501C44.9976 -2.39547 13.0228 8.09299 9.47922 -18.6151C6.51248 -40.978 18.1322 -45.8177 22.0729 -46.7017C29.6545 -48.3949 39.2665 -43.8174 41.0045 -42.2891Z" fill="#C42C7C"/>
<path d="M69.9602 20.3645C70.1924 24.1778 66.9335 27.4891 62.6707 27.7514C58.4079 28.0136 54.7669 25.1367 54.5347 21.3159C54.3024 17.5026 57.5613 14.1913 61.8242 13.9291C66.0795 13.6744 69.7279 16.5512 69.9602 20.3645Z" fill="#ED6D99"/>
<path d="M63.6596 21.4658C63.6971 22.0277 63.27 22.5071 62.7081 22.5446C62.1463 22.5821 61.6668 22.155 61.6293 21.5931C61.5919 21.0312 62.0189 20.5518 62.5808 20.5143C63.1427 20.4769 63.6296 20.9039 63.6596 21.4658Z" fill="#C42C7C"/>
<path d="M51.3806 26.133C51.3806 26.133 48.8035 30.2161 45.8742 30.0812C43.4618 29.9688 42.2182 28.1633 42.3306 28.0435C42.5703 27.7887 43.8963 28.7327 45.2449 28.5604C46.9305 28.3356 47.852 27.4591 48.5412 26.4028C49.2904 25.2565 49.6051 23.6308 49.6051 23.6308L51.3806 26.133Z" fill="#F3A4B7"/>
<path d="M53.9203 9.0519C53.2236 8.6923 52.6392 8.67731 51.8376 8.73724C49.5152 8.90955 45.5595 9.40401 43.3794 11.3669C40.158 14.2737 39.2665 19.2781 39.1166 20.4019C38.9593 21.5332 39.5212 22.0276 40.7423 22.2973C41.9635 22.567 43.9713 23.1589 44.2859 21.6306C44.6006 20.1023 44.5706 16.4388 45.7768 14.5134C47.1253 12.3708 50.3917 11.7789 52.3845 11.6141C53.351 11.5392 54.0028 11.4418 54.4523 10.8949C54.9093 10.3405 54.5646 9.38154 53.9203 9.0519Z" fill="#F3A4B7"/>
</g>
</svg>
