<svg width="32" height="34" viewBox="0 0 32 34" fill="none" xmlns="http://www.w3.org/2000/svg">
<g clip-path="url(#clip0)">
<path d="M6.32415 1.22634L6.32474 1.22619C8.31382 0.725652 10.2569 1.24936 12.0711 2.33019C13.8905 3.41418 15.5211 5.02609 16.8262 6.58058C23.1528 14.1543 28.0973 23.8544 30.1295 32.6385C27.2926 29.9221 24.3357 28.7894 20.8258 27.4448L20.7317 27.4088H20.7316C20.5979 27.3576 20.4635 27.3062 20.3285 27.2547C19.759 27.0372 19.1784 26.8155 18.5874 26.579L18.4029 26.5052L18.4025 26.5051C13.721 24.6355 9.05126 22.7636 5.48396 19.389L5.48388 19.3889C2.06597 16.1565 -0.408198 10.7568 1.39832 5.95752L1.39889 5.956C2.29972 3.54696 4.21464 1.75535 6.32415 1.22634Z" fill="white" stroke="black" stroke-width="1.5"/>
</g>
<defs>
<clipPath id="clip0">
<rect width="32" height="34" fill="white"/>
</clipPath>
</defs>
</svg>
