<svg width="18" height="6" viewBox="0 0 18 6" fill="none" xmlns="http://www.w3.org/2000/svg">
<path d="M16.0054 1.56635C15.2823 1.32286 14.4633 1.3081 13.814 1.30072C10.988 1.25645 8.16945 1.16791 5.34349 1.07937L4.71634 1.05723C4.0449 1.04985 3.24063 1.16053 2.60608 1.37451C1.76494 1.66227 1.29273 2.08284 1.18943 2.62885C1.10089 3.11583 1.32962 3.58805 1.87562 4.03076C2.52493 4.56201 3.43249 4.78336 4.32528 4.95307C6.12563 5.29248 7.95549 5.46218 9.76321 5.46218C11.5488 5.46218 13.3123 5.29985 15.0019 4.96044C16.485 4.67268 17.2819 4.14882 17.4294 3.37408C17.5696 2.63623 16.9867 1.891 16.0054 1.56635Z" fill="#5A706F" stroke="black" stroke-width="0.5"/>
</svg>
