<svg width="212" height="84" viewBox="0 0 212 84" fill="none" xmlns="http://www.w3.org/2000/svg">
<path d="M60.9495 45.8202C60.6101 45.5597 60.1238 45.6118 59.8559 45.9505C49.095 59.6054 33.0491 68.8016 15.8298 71.1787C10.4276 71.9252 6.80162 71.1438 4.748 68.7938C3.2776 67.1192 2.62546 64.5928 2.74416 61.0844C3.16299 49.2979 10.6247 38.0327 21.3087 33.0541C21.6955 32.8743 21.8638 32.4081 21.6841 32.0213C21.5043 31.6345 21.0387 31.4588 20.6513 31.6459C9.44897 36.8664 1.62653 48.6767 1.18569 61.0317C1.04363 64.9603 1.82737 67.8321 3.573 69.8206C5.15029 71.6235 7.42761 72.6528 10.4624 72.9285C12.1011 73.0774 13.9521 73.0085 16.0383 72.7164C33.6551 70.2865 50.0684 60.8792 61.0725 46.9131C61.3403 46.5744 61.2882 46.0881 60.9495 45.8202Z" fill="#201600" stroke="black"/>
<path d="M191.53 76.9458L191.53 76.9469C191.571 77.0988 191.479 77.2433 191.346 77.2766L191.346 77.2765L191.337 77.279C176.617 81.2532 162.303 83.2235 149.026 83.2235C131.188 83.2235 115.244 79.6714 102.749 72.6769L102.749 72.6769C102.625 72.6073 102.571 72.4405 102.647 72.3005C102.717 72.1782 102.883 72.1246 103.023 72.2005C124.79 84.3795 156.937 86.0035 191.191 76.7539L191.198 76.752C191.337 76.7125 191.49 76.7962 191.53 76.9458ZM102.505 73.1131L102.505 73.1131L102.505 73.1131Z" fill="#201600" stroke="black"/>
<path d="M122.117 8.41138C120.265 5.25339 116.458 3.51207 112.857 4.16875C109.256 4.83282 106.319 7.8211 105.722 11.4292C105.523 12.6245 106.327 13.746 107.522 13.9452C108.703 14.1444 109.839 13.3402 110.038 12.1449C110.333 10.374 111.89 8.79506 113.654 8.4704C115.417 8.14575 117.431 9.06805 118.346 10.6175C118.752 11.3111 119.033 12.2187 119.195 13.3992C119.35 14.4912 120.287 15.2807 121.357 15.2807C121.46 15.2807 121.563 15.2734 121.667 15.2586C122.862 15.0889 123.696 13.9821 123.526 12.7868C123.275 11.0381 122.818 9.60669 122.117 8.41138Z" fill="#201600"/>
<path d="M100.011 4.34584C99.7526 4.34584 99.5091 4.20566 99.3763 3.96954C99.1845 3.62276 99.3173 3.18005 99.6641 2.98821C101.723 1.87406 103.914 0.988647 106.172 0.354098C106.556 0.243421 106.954 0.472148 107.057 0.855829C107.168 1.23951 106.939 1.63795 106.556 1.74863C104.401 2.34628 102.313 3.1948 100.35 4.2573C100.247 4.31633 100.129 4.34584 100.011 4.34584Z" fill="#201600"/>
<path d="M104.748 23.2789C103.22 23.2789 101.693 22.8362 100.409 21.995C100.077 21.7737 99.9813 21.331 100.203 20.9989C100.424 20.6669 100.867 20.571 101.199 20.7923C102.549 21.6778 104.246 22.0172 105.84 21.7442C106.231 21.6777 106.607 21.936 106.674 22.3271C106.74 22.7181 106.482 23.0944 106.091 23.1608C105.641 23.242 105.191 23.2789 104.748 23.2789Z" fill="#201600"/>
<path d="M207.154 35.9626C206.976 35.9626 206.792 35.8962 206.652 35.7634C206.364 35.4904 206.357 35.0329 206.63 34.7452L209.825 31.4175C210.098 31.1297 210.555 31.1223 210.843 31.3953C211.131 31.6684 211.138 32.1258 210.865 32.4136L207.67 35.7413C207.53 35.8815 207.338 35.9626 207.154 35.9626Z" fill="#201600"/>
<path d="M201.723 36.3684C201.561 36.3684 201.398 36.3167 201.266 36.2061C200.956 35.9552 200.911 35.4977 201.162 35.1878L204.35 31.2994C204.601 30.9895 205.058 30.9452 205.368 31.1961C205.678 31.447 205.722 31.9044 205.471 32.2143L202.284 36.1028C202.144 36.2725 201.937 36.3684 201.723 36.3684Z" fill="#201600"/>
<path d="M196.462 35.6822C196.344 35.6822 196.226 35.6527 196.115 35.5937C195.769 35.4019 195.636 34.9592 195.828 34.6124C196.662 33.1072 197.672 31.6979 198.846 30.4435C199.119 30.1484 199.576 30.141 199.864 30.4066C200.159 30.6796 200.174 31.1371 199.901 31.4249C198.809 32.5981 197.864 33.904 197.089 35.3059C196.964 35.5494 196.721 35.6822 196.462 35.6822Z" fill="#201600"/>
</svg>
