<svg width="32" height="34" viewBox="0 0 32 34" fill="none" xmlns="http://www.w3.org/2000/svg">
<path d="M14.2616 6.58001C15.563 5.02197 17.1898 3.40835 19.0072 2.32456C20.8185 1.2444 22.761 0.7222 24.7537 1.22589C26.8586 1.76218 28.7739 3.54857 29.6816 5.9578C31.488 10.7569 29.0138 16.1565 25.596 19.3889C22.0287 22.7636 17.3588 24.6354 12.6773 26.5051L12.667 26.5093L12.4948 26.581C11.9055 26.8167 11.3266 27.0378 10.7587 27.2547C10.6237 27.3062 10.4894 27.3575 10.3557 27.4087L10.2898 27.4339C6.90478 28.7283 3.81547 29.9097 0.957581 32.6393C2.98968 23.8547 7.9345 14.1539 14.2616 6.58001Z" fill="white" stroke="black" stroke-width="1.5"/>
</svg>
